<?xml version="1.0" ?>
<svg height="5.29299975.29299975.29299975.29299975.29299975.29299975.29299975.29299975.29299975.2929997" viewBox="0 0 5.292998 5.2929997" width="5.2929985.2929985.2929985.2929985.2929985.2929985.2929985.2929985.2929985.292998" xmlns="http://www.w3.org/2000/svg">
  <path d="m0.71885,4.97999c0,0.11529 -0.09345,0.20873 -0.20874,0.20873 -0.11528,0 -0.20873,-0.09349 -0.20873,-0.20873 0,-0.11528 0.09345,-0.20873 0.20873,-0.20873 0.11528,0 0.20874,0.09349 0.20874,0.20873z" fill="#d15c00" stroke="#00000000" stroke-width="0.0470019"/>
  <path d="m0.84147,4.21276c0,0.11528 -0.09345,0.20873 -0.20874,0.20873 -0.11528,0 -0.20873,-0.09349 -0.20873,-0.20873 0,-0.11528 0.09345,-0.20873 0.20873,-0.20873 0.11528,0 0.20874,0.09349 0.20874,0.20873z" fill="#d15c00" stroke="#00000000" stroke-width="0.0470019"/>
  <path d="m1.13414,3.50837c0,0.11528 -0.09345,0.20873 -0.20874,0.20873 -0.11528,0 -0.20873,-0.09349 -0.20873,-0.20873 0,-0.11528 0.09345,-0.20873 0.20873,-0.20873 0.11528,0 0.20874,0.09349 0.20874,0.20873z" fill="#d15c00" stroke="#00000000" stroke-width="0.0470019"/>
  <path d="m1.68856,2.9909c0,0.11528 -0.09345,0.20874 -0.20873,0.20874 -0.11528,0 -0.20874,-0.09349 -0.20874,-0.20874 0,-0.11527 0.09345,-0.20873 0.20874,-0.20873 0.11528,0 0.20873,0.09349 0.20873,0.20873z" fill="#d15c00" stroke="#00000000" stroke-width="0.0470019"/>
  <path d="m2.41479,2.74219c0,0.11528 -0.09345,0.20872 -0.20874,0.20872 -0.11528,0 -0.20873,-0.09349 -0.20873,-0.20872 0,-0.11529 0.09345,-0.20874 0.20873,-0.20874 0.11528,0 0.20874,0.09349 0.20874,0.20874z" fill="#d15c00" stroke="#00000000" stroke-width="0.0470019"/>
  <path d="m3.16784,2.58427c0,0.11528 -0.09345,0.20873 -0.20873,0.20873 -0.11528,0 -0.20874,-0.09349 -0.20874,-0.20873 0,-0.11528 0.09345,-0.20873 0.20874,-0.20873 0.11528,0 0.20873,0.09349 0.20873,0.20873z" fill="#d15c00" stroke="#00000000" stroke-width="0.0470019"/>
  <path d="m3.88128,2.30147c0,0.11528 -0.09345,0.20872 -0.20874,0.20872 -0.11528,0 -0.20873,-0.09349 -0.20873,-0.20872 0,-0.11529 0.09345,-0.20873 0.20873,-0.20873 0.11528,0 0.20874,0.09349 0.20874,0.20873z" fill="#d15c00" stroke="#00000000" stroke-width="0.0470019"/>
  <path d="m4.43181,1.77328c0,0.11528 -0.09345,0.20873 -0.20873,0.20873 -0.11528,0 -0.20874,-0.09349 -0.20874,-0.20873 0,-0.11529 0.09345,-0.20873 0.20874,-0.20873 0.11528,0 0.20873,0.09349 0.20873,0.20873z" fill="#d15c00" stroke="#00000000" stroke-width="0.0470019"/>
  <path d="m4.76199,1.08874c0,0.11528 -0.09345,0.20873 -0.20873,0.20873 -0.11528,0 -0.20874,-0.09349 -0.20874,-0.20873 0,-0.11528 0.09345,-0.20873 0.20874,-0.20873 0.11528,0 0.20873,0.09349 0.20873,0.20873z" fill="#d15c00" stroke="#00000000" stroke-width="0.0470019"/>
  <path d="m4.94347,0.33235c0,0.11528 -0.09345,0.20873 -0.20874,0.20873 -0.11528,0 -0.20873,-0.09349 -0.20873,-0.20873 0,-0.11528 0.09345,-0.20872 0.20873,-0.20872 0.11528,0 0.20874,0.09349 0.20874,0.20872z" fill="#d15c00" stroke="#00000000" stroke-width="0.0470019"/>
</svg>
