<?xml version="1.0" ?>
<svg xmlns="http://www.w3.org/2000/svg" width="125.57505" height="125.57495" viewBox="0 0 5.023002 5.022998">
  <g>
    <path d="m0.83064,0.63314c0,0.08284 -0.06715,0.15 -0.15,0.15 -0.08284,0 -0.15,-0.06716 -0.15,-0.15 0,-0.08284 0.06716,-0.15 0.15,-0.15 0.08285,0 0.15,0.06716 0.15,0.15z" fill="#000000" stroke="#00000000"/>
    <path d="m2.03065,0.63314c0,0.08284 -0.06716,0.15 -0.15,0.15 -0.08284,0 -0.15,-0.06716 -0.15,-0.15 0,-0.08284 0.06716,-0.15 0.15,-0.15 0.08284,0 0.15,0.06716 0.15,0.15z" fill="#000000" stroke="#00000000"/>
    <path d="m3.23064,0.63314c0,0.08284 -0.06716,0.15 -0.15,0.15 -0.08284,0 -0.15,-0.06716 -0.15,-0.15 0,-0.08284 0.06716,-0.15 0.15,-0.15 0.08285,0 0.15,0.06716 0.15,0.15z" fill="#000000" stroke="#00000000"/>
    <path d="m4.43064,0.63314c0,0.08284 -0.06716,0.15 -0.15,0.15 -0.08284,0 -0.15,-0.06716 -0.15,-0.15 0,-0.08284 0.06716,-0.15 0.15,-0.15 0.08284,0 0.15,0.06716 0.15,0.15z" fill="#000000" stroke="#00000000"/>
    <path d="m0.83064,1.83315c0,0.08284 -0.06715,0.15 -0.15,0.15 -0.08284,0 -0.15,-0.06716 -0.15,-0.15 0,-0.08285 0.06716,-0.15 0.15,-0.15 0.08285,0 0.15,0.06715 0.15,0.15z" fill="#000000" stroke="#00000000"/>
    <path d="m2.03065,1.83315c0,0.08284 -0.06716,0.15 -0.15,0.15 -0.08284,0 -0.15,-0.06716 -0.15,-0.15 0,-0.08285 0.06716,-0.15 0.15,-0.15 0.08284,0 0.15,0.06715 0.15,0.15z" fill="#000000" stroke="#00000000"/>
    <path d="m3.23064,1.83315c0,0.08284 -0.06716,0.15 -0.15,0.15 -0.08284,0 -0.15,-0.06716 -0.15,-0.15 0,-0.08285 0.06716,-0.15 0.15,-0.15 0.08285,0 0.15,0.06715 0.15,0.15z" fill="#000000" stroke="#00000000"/>
    <path d="m4.43064,1.83315c0,0.08284 -0.06716,0.15 -0.15,0.15 -0.08284,0 -0.15,-0.06716 -0.15,-0.15 0,-0.08285 0.06716,-0.15 0.15,-0.15 0.08284,0 0.15,0.06715 0.15,0.15z" fill="#000000" stroke="#00000000"/>
    <path d="m0.83064,3.03314c0,0.08284 -0.06715,0.15 -0.15,0.15 -0.08284,0 -0.15,-0.06716 -0.15,-0.15 0,-0.08284 0.06716,-0.15 0.15,-0.15 0.08285,0 0.15,0.06716 0.15,0.15z" fill="#000000" stroke="#00000000"/>
    <path d="m2.03065,3.03314c0,0.08284 -0.06716,0.15 -0.15,0.15 -0.08284,0 -0.15,-0.06716 -0.15,-0.15 0,-0.08284 0.06716,-0.15 0.15,-0.15 0.08284,0 0.15,0.06716 0.15,0.15z" fill="#000000" stroke="#00000000"/>
    <path d="m3.23064,3.03314c0,0.08284 -0.06716,0.15 -0.15,0.15 -0.08284,0 -0.15,-0.06716 -0.15,-0.15 0,-0.08284 0.06716,-0.15 0.15,-0.15 0.08285,0 0.15,0.06716 0.15,0.15z" fill="#000000" stroke="#00000000"/>
    <path d="m4.43064,3.03314c0,0.08284 -0.06716,0.15 -0.15,0.15 -0.08284,0 -0.15,-0.06716 -0.15,-0.15 0,-0.08284 0.06716,-0.15 0.15,-0.15 0.08284,0 0.15,0.06716 0.15,0.15z" fill="#000000" stroke="#00000000"/>
    <path d="m0.83064,4.23315c0,0.08284 -0.06715,0.15 -0.15,0.15 -0.08284,0 -0.15,-0.06716 -0.15,-0.15 0,-0.08284 0.06716,-0.15 0.15,-0.15 0.08285,0 0.15,0.06716 0.15,0.15z" fill="#000000" stroke="#00000000"/>
    <path d="m2.03065,4.23315c0,0.08284 -0.06716,0.15 -0.15,0.15 -0.08284,0 -0.15,-0.06716 -0.15,-0.15 0,-0.08284 0.06716,-0.15 0.15,-0.15 0.08284,0 0.15,0.06716 0.15,0.15z" fill="#000000" stroke="#00000000"/>
    <path d="m3.23064,4.23315c0,0.08284 -0.06716,0.15 -0.15,0.15 -0.08284,0 -0.15,-0.06716 -0.15,-0.15 0,-0.08284 0.06716,-0.15 0.15,-0.15 0.08285,0 0.15,0.06716 0.15,0.15z" fill="#000000" stroke="#00000000"/>
    <path d="m4.43064,4.23315c0,0.08284 -0.06716,0.15 -0.15,0.15 -0.08284,0 -0.15,-0.06716 -0.15,-0.15 0,-0.08284 0.06716,-0.15 0.15,-0.15 0.08284,0 0.15,0.06716 0.15,0.15z" fill="#000000" stroke="#00000000"/>
  </g>
  <path d="m-0.15635,-0.04785h5.24082v5.13191h-5.24082z" fill="#ffba36" stroke-width="0.04370772" stroke="#00000000"/>
</svg>
