<?xml version="1.0" ?>
<svg xmlns="http://www.w3.org/2000/svg" width="125.57505" height="125.57495" viewBox="0 0 5.023002 5.022998">
  <path d="m-0.15635,-0.04785h5.24082v5.13191h-5.24082z" fill="#ffba36" stroke-width="0.04370772" stroke="#00000000"/>
  <g>
    <path d="m1.0429,0.72778c0,0.18667 -0.15132,0.338 -0.338,0.338 -0.18667,0 -0.338,-0.15133 -0.338,-0.338 0,-0.18667 0.15133,-0.338 0.338,-0.338 0.18667,0 0.338,0.15133 0.338,0.338z" fill="#3dff17" stroke="#00000000"/>
    <path d="m2.2429,0.72778c0,0.18667 -0.15133,0.338 -0.338,0.338 -0.18667,0 -0.338,-0.15133 -0.338,-0.338 0,-0.18667 0.15133,-0.338 0.338,-0.338 0.18667,0 0.338,0.15133 0.338,0.338z" fill="#3dff17" stroke="#00000000"/>
    <path d="m3.44289,0.72778c0,0.18667 -0.15132,0.338 -0.338,0.338 -0.18667,0 -0.338,-0.15133 -0.338,-0.338 0,-0.18667 0.15133,-0.338 0.338,-0.338 0.18667,0 0.338,0.15133 0.338,0.338z" fill="#3dff17" stroke="#00000000"/>
    <path d="m4.64289,0.72778c0,0.18667 -0.15133,0.338 -0.338,0.338 -0.18667,0 -0.338,-0.15133 -0.338,-0.338 0,-0.18667 0.15133,-0.338 0.338,-0.338 0.18667,0 0.338,0.15133 0.338,0.338z" fill="#3dff17" stroke="#00000000"/>
    <path d="m1.0429,1.92778c0,0.18667 -0.15132,0.338 -0.338,0.338 -0.18667,0 -0.338,-0.15133 -0.338,-0.338 0,-0.18667 0.15133,-0.338 0.338,-0.338 0.18667,0 0.338,0.15132 0.338,0.338z" fill="#3dff17" stroke="#00000000"/>
    <path d="m2.2429,1.92778c0,0.18667 -0.15133,0.338 -0.338,0.338 -0.18667,0 -0.338,-0.15133 -0.338,-0.338 0,-0.18667 0.15133,-0.338 0.338,-0.338 0.18667,0 0.338,0.15132 0.338,0.338z" fill="#3dff17" stroke="#00000000"/>
    <path d="m3.44289,1.92778c0,0.18667 -0.15132,0.338 -0.338,0.338 -0.18667,0 -0.338,-0.15133 -0.338,-0.338 0,-0.18667 0.15133,-0.338 0.338,-0.338 0.18667,0 0.338,0.15132 0.338,0.338z" fill="#3dff17" stroke="#00000000"/>
    <path d="m4.64289,1.92778c0,0.18667 -0.15133,0.338 -0.338,0.338 -0.18667,0 -0.338,-0.15133 -0.338,-0.338 0,-0.18667 0.15133,-0.338 0.338,-0.338 0.18667,0 0.338,0.15132 0.338,0.338z" fill="#3dff17" stroke="#00000000"/>
    <path d="m1.0429,3.12779c0,0.18667 -0.15132,0.338 -0.338,0.338 -0.18667,0 -0.338,-0.15133 -0.338,-0.338 0,-0.18667 0.15133,-0.338 0.338,-0.338 0.18667,0 0.338,0.15133 0.338,0.338z" fill="#3dff17" stroke="#00000000"/>
    <path d="m2.2429,3.12779c0,0.18667 -0.15133,0.338 -0.338,0.338 -0.18667,0 -0.338,-0.15133 -0.338,-0.338 0,-0.18667 0.15133,-0.338 0.338,-0.338 0.18667,0 0.338,0.15133 0.338,0.338z" fill="#3dff17" stroke="#00000000"/>
    <path d="m3.44289,3.12779c0,0.18667 -0.15132,0.338 -0.338,0.338 -0.18667,0 -0.338,-0.15133 -0.338,-0.338 0,-0.18667 0.15133,-0.338 0.338,-0.338 0.18667,0 0.338,0.15133 0.338,0.338z" fill="#3dff17" stroke="#00000000"/>
    <path d="m4.64289,3.12779c0,0.18667 -0.15133,0.338 -0.338,0.338 -0.18667,0 -0.338,-0.15133 -0.338,-0.338 0,-0.18667 0.15133,-0.338 0.338,-0.338 0.18667,0 0.338,0.15133 0.338,0.338z" fill="#3dff17" stroke="#00000000"/>
    <path d="m1.0429,4.32778c0,0.18667 -0.15132,0.338 -0.338,0.338 -0.18667,0 -0.338,-0.15133 -0.338,-0.338 0,-0.18667 0.15133,-0.338 0.338,-0.338 0.18667,0 0.338,0.15132 0.338,0.338z" fill="#3dff17" stroke="#00000000"/>
    <path d="m2.2429,4.32778c0,0.18667 -0.15133,0.338 -0.338,0.338 -0.18667,0 -0.338,-0.15133 -0.338,-0.338 0,-0.18667 0.15133,-0.338 0.338,-0.338 0.18667,0 0.338,0.15132 0.338,0.338z" fill="#3dff17" stroke="#00000000"/>
    <path d="m3.44289,4.32778c0,0.18667 -0.15132,0.338 -0.338,0.338 -0.18667,0 -0.338,-0.15133 -0.338,-0.338 0,-0.18667 0.15133,-0.338 0.338,-0.338 0.18667,0 0.338,0.15132 0.338,0.338z" fill="#3dff17" stroke="#00000000"/>
    <path d="m4.64289,4.32778c0,0.18667 -0.15133,0.338 -0.338,0.338 -0.18667,0 -0.338,-0.15133 -0.338,-0.338 0,-0.18667 0.15133,-0.338 0.338,-0.338 0.18667,0 0.338,0.15132 0.338,0.338z" fill="#3dff17" stroke="#00000000"/>
    <path d="m1.0429,5.52779c0,0.18667 -0.15132,0.338 -0.338,0.338 -0.18667,0 -0.338,-0.15132 -0.338,-0.338 0,-0.18667 0.15133,-0.338 0.338,-0.338 0.18667,0 0.338,0.15133 0.338,0.338z" fill="#3dff17" stroke="#00000000"/>
    <path d="m2.2429,5.52779c0,0.18667 -0.15133,0.338 -0.338,0.338 -0.18667,0 -0.338,-0.15132 -0.338,-0.338 0,-0.18667 0.15133,-0.338 0.338,-0.338 0.18667,0 0.338,0.15133 0.338,0.338z" fill="#3dff17" stroke="#00000000"/>
    <path d="m3.44289,5.52779c0,0.18667 -0.15132,0.338 -0.338,0.338 -0.18667,0 -0.338,-0.15132 -0.338,-0.338 0,-0.18667 0.15133,-0.338 0.338,-0.338 0.18667,0 0.338,0.15133 0.338,0.338z" fill="#3dff17" stroke="#00000000"/>
    <path d="m4.64289,5.52779c0,0.18667 -0.15133,0.338 -0.338,0.338 -0.18667,0 -0.338,-0.15132 -0.338,-0.338 0,-0.18667 0.15133,-0.338 0.338,-0.338 0.18667,0 0.338,0.15133 0.338,0.338z" fill="#3dff17" stroke="#00000000"/>
  </g>
</svg>
