<?xml version="1.0" ?>
<svg xmlns="http://www.w3.org/2000/svg" width="128" height="128" viewBox="0 0 5.3 5.3">
  <path d="m0.71067,3.80151 l0.72864,-0.0965" fill="#00000000" stroke-linejoin="miter" stroke-linecap="butt" stroke-width="0.20999999" stroke="#d15c00"/>
  <path d="m4.58033,3.83781 l-0.72655,-0.11118" fill="#00000000" stroke-linejoin="miter" stroke-linecap="butt" stroke-width="0.20999999" stroke="#d15c00"/>
  <path d="m1.42497,3.11407 l-0.73349,-0.0471" fill="#00000000" stroke-linejoin="miter" stroke-linecap="butt" stroke-width="0.20999999" stroke="#d15c00"/>
  <path d="m1.52036,2.56773 l-0.70294,-0.21471" fill="#00000000" stroke-linejoin="miter" stroke-linecap="butt" stroke-width="0.20999999" stroke="#d15c00"/>
  <path d="m1.73635,2.11061 l-0.60479,-0.41767" fill="#00000000" stroke-linejoin="miter" stroke-linecap="butt" stroke-width="0.20999999" stroke="#d15c00"/>
  <path d="m2.05771,1.78754 l-0.41314,-0.6079" fill="#00000000" stroke-linejoin="miter" stroke-linecap="butt" stroke-width="0.20999999" stroke="#d15c00"/>
  <path d="m2.45869,1.61871 l-0.14339,-0.72088" fill="#00000000" stroke-linejoin="miter" stroke-linecap="butt" stroke-width="0.20999999" stroke="#d15c00"/>
  <path d="m2.88799,1.62154 l0.15347,-0.7188" fill="#00000000" stroke-linejoin="miter" stroke-linecap="butt" stroke-width="0.20999999" stroke="#d15c00"/>
  <path d="m3.28281,1.79524 l0.42448,-0.60003" fill="#00000000" stroke-linejoin="miter" stroke-linecap="butt" stroke-width="0.20999999" stroke="#d15c00"/>
  <path d="m3.59465,2.12267 l0.61456,-0.40317" fill="#00000000" stroke-linejoin="miter" stroke-linecap="butt" stroke-width="0.20999999" stroke="#d15c00"/>
  <path d="m3.79878,2.58392 l0.70803,-0.19727" fill="#00000000" stroke-linejoin="miter" stroke-linecap="butt" stroke-width="0.20999999" stroke="#d15c00"/>
  <path d="m3.8812,3.13373 l0.73439,-0.0301" fill="#00000000" stroke-linejoin="miter" stroke-linecap="butt" stroke-width="0.20999999" stroke="#d15c00"/>
  <path d="m0.72445,3.90559c-0.539,-4.07 4.466,-4.055 3.84,0.036" fill="#00000000" stroke-linejoin="miter" stroke-linecap="butt" stroke-width="0.26999998" stroke="#d15c00"/>
  <path d="m2.27357,3.5294 l-0.35193,0.64526" fill="#00000000" stroke-linejoin="miter" stroke-linecap="butt" stroke-width="0.20999999" stroke="#d15c00"/>
  <path d="m2.87933,3.8598 l-0.35193,0.64526" fill="#00000000" stroke-linejoin="miter" stroke-linecap="butt" stroke-width="0.20999999" stroke="#d15c00"/>
  <path d="m2.97151,3.91006 l-0.79012,-0.43094" fill="#00000000" stroke-linejoin="miter" stroke-linecap="butt" stroke-width="0.26999998" stroke="#d15c00"/>
</svg>
