<?xml version="1.0" ?>
<svg height="5.29299975.29299975.29299975.29299975.29299975.29299975.29299975.29299975.29299975.2929997" viewBox="0 0 5.292998 5.2929997" width="5.2929985.2929985.2929985.2929985.2929985.2929985.2929985.2929985.2929985.292998" xmlns="http://www.w3.org/2000/svg">
  <path d="m-0.16697,4.89879 l1.29783,-1.0781 1.29783,-1.0781m0.41628,-0.3458 l1.29783,-1.0781 1.29783,-1.07811" fill="#00000000" stroke="#d15c00" stroke-linecap="butt" stroke-linejoin="miter" stroke-width="0.27831793"/>
  <path d="m1.47927,3.82069c0,0.19242 -0.15599,0.34841 -0.34841,0.34841 -0.19242,0 -0.34842,-0.15599 -0.34842,-0.34841 0,-0.19242 0.15599,-0.34841 0.34842,-0.34841 0.19242,0 0.34841,0.15599 0.34841,0.34841z" fill="#d15c00" stroke="#00000000" stroke-width="0.043637503"/>
  <path d="m4.49121,1.3187c0,0.19242 -0.15599,0.34841 -0.34842,0.34841 -0.19242,0 -0.34841,-0.15599 -0.34841,-0.34841 0,-0.19242 0.15599,-0.34841 0.34841,-0.34841 0.19243,0 0.34842,0.15599 0.34842,0.34841z" fill="#d15c00" stroke="#00000000" stroke-width="0.043637503"/>
</svg>
