<?xml version="1.0" ?>
<svg height="5.2335.2335.2335.2335.2335.2335.2335.2335.2335.233" viewBox="0 0 5.232998 5.233" width="5.2329985.2329985.2329985.2329985.2329985.2329985.2329985.2329985.2329985.232998" xmlns="http://www.w3.org/2000/svg">
  <path d="m1.79362,3.86137c0,0.16568 -0.13432,0.3 -0.3,0.3 -0.16568,0 -0.3,-0.13432 -0.3,-0.3 0,-0.16569 0.13432,-0.3 0.3,-0.3 0.16568,0 0.3,0.13431 0.3,0.3z" fill="#000000" stroke="#00000000"/>
  <path d="m4.28713,1.36787c0,0.16568 -0.13432,0.3 -0.3,0.3 -0.16569,0 -0.3,-0.13432 -0.3,-0.3 0,-0.16568 0.13432,-0.3 0.3,-0.3 0.16568,0 0.3,0.13432 0.3,0.3z" fill="#000000" stroke="#00000000"/>
  <path d="m-0.40653,5.76161 l6.2939,-6.2939" fill="#00000000" stroke="#000000" stroke-linecap="butt" stroke-linejoin="miter" stroke-width="0.23591717"/>
</svg>
