<?xml version="1.0" ?>
<svg height="5.29299975.29299975.29299975.29299975.29299975.29299975.29299975.29299975.29299975.2929997" viewBox="0 0 5.292998 5.2929997" width="5.2929985.2929985.2929985.2929985.2929985.2929985.2929985.2929985.2929985.292998" xmlns="http://www.w3.org/2000/svg">
  <g>
    <path d="m-0.0861,0.25523l5.46153,0" fill="#00000000" stroke="#00ffff" stroke-linecap="butt" stroke-linejoin="miter" stroke-width="0.15836646"/>
    <path d="m-0.0861,0.73033l5.46153,0" fill="#00000000" stroke="#00ffff" stroke-linecap="butt" stroke-linejoin="miter" stroke-width="0.15836646"/>
    <path d="m-0.0861,1.20543l5.46153,0" fill="#00000000" stroke="#00ffff" stroke-linecap="butt" stroke-linejoin="miter" stroke-width="0.15836646"/>
    <path d="m-0.0861,1.68053l5.46153,0" fill="#00000000" stroke="#00ffff" stroke-linecap="butt" stroke-linejoin="miter" stroke-width="0.15836646"/>
    <path d="m-0.0861,2.15563l5.46153,0" fill="#00000000" stroke="#00ffff" stroke-linecap="butt" stroke-linejoin="miter" stroke-width="0.15836646"/>
    <path d="m-0.0861,2.63073l5.46153,0" fill="#00000000" stroke="#00ffff" stroke-linecap="butt" stroke-linejoin="miter" stroke-width="0.15836646"/>
    <path d="m-0.0861,3.10583l5.46153,0" fill="#00000000" stroke="#00ffff" stroke-linecap="butt" stroke-linejoin="miter" stroke-width="0.15836646"/>
    <path d="m-0.0861,3.58093l5.46153,0" fill="#00000000" stroke="#00ffff" stroke-linecap="butt" stroke-linejoin="miter" stroke-width="0.15836646"/>
    <path d="m-0.0861,4.05603l5.46153,0" fill="#00000000" stroke="#00ffff" stroke-linecap="butt" stroke-linejoin="miter" stroke-width="0.15836646"/>
    <path d="m-0.0861,4.53113l5.46153,0" fill="#00000000" stroke="#00ffff" stroke-linecap="butt" stroke-linejoin="miter" stroke-width="0.15836646"/>
    <path d="m-0.0861,5.00623l5.46153,0" fill="#00000000" stroke="#00ffff" stroke-linecap="butt" stroke-linejoin="miter" stroke-width="0.15836646"/>
  </g>
</svg>
