<?xml version="1.0" ?>
<svg xmlns="http://www.w3.org/2000/svg" width="132.32495" height="132.3249925" viewBox="0 0 5.292998 5.2929997">
  <g>
    <path d="M-0.97601,0.22395L0.47468,0.22395" fill="#00000000" stroke-linejoin="miter" stroke-linecap="butt" stroke-width="0.1611875" stroke="#00ffff"/>
    <path d="m0.87765,0.22395l1.45069,0" fill="#00000000" stroke-linejoin="miter" stroke-linecap="butt" stroke-width="0.1611875" stroke="#00ffff"/>
    <path d="M2.7313,0.22395L4.18199,0.22395" fill="#00000000" stroke-linejoin="miter" stroke-linecap="butt" stroke-width="0.1611875" stroke="#00ffff"/>
    <path d="m4.58496,0.22395l1.45069,0" fill="#00000000" stroke-linejoin="miter" stroke-linecap="butt" stroke-width="0.1611875" stroke="#00ffff"/>
    <path d="M-0.97601,1.19107L0.47468,1.19107" fill="#00000000" stroke-linejoin="miter" stroke-linecap="butt" stroke-width="0.1611875" stroke="#00ffff"/>
    <path d="m0.87765,1.19107l1.45069,0" fill="#00000000" stroke-linejoin="miter" stroke-linecap="butt" stroke-width="0.1611875" stroke="#00ffff"/>
    <path d="M2.7313,1.19107L4.18199,1.19107" fill="#00000000" stroke-linejoin="miter" stroke-linecap="butt" stroke-width="0.1611875" stroke="#00ffff"/>
    <path d="m4.58496,1.19107l1.45069,0" fill="#00000000" stroke-linejoin="miter" stroke-linecap="butt" stroke-width="0.1611875" stroke="#00ffff"/>
    <path d="M-0.97601,2.1582L0.47468,2.1582" fill="#00000000" stroke-linejoin="miter" stroke-linecap="butt" stroke-width="0.1611875" stroke="#00ffff"/>
    <path d="m0.87765,2.1582l1.45069,0" fill="#00000000" stroke-linejoin="miter" stroke-linecap="butt" stroke-width="0.1611875" stroke="#00ffff"/>
    <path d="M2.7313,2.1582L4.18199,2.1582" fill="#00000000" stroke-linejoin="miter" stroke-linecap="butt" stroke-width="0.1611875" stroke="#00ffff"/>
    <path d="m4.58496,2.1582l1.45069,0" fill="#00000000" stroke-linejoin="miter" stroke-linecap="butt" stroke-width="0.1611875" stroke="#00ffff"/>
    <path d="M-0.97601,3.12532L0.47468,3.12532" fill="#00000000" stroke-linejoin="miter" stroke-linecap="butt" stroke-width="0.1611875" stroke="#00ffff"/>
    <path d="m0.87765,3.12532l1.45069,0" fill="#00000000" stroke-linejoin="miter" stroke-linecap="butt" stroke-width="0.1611875" stroke="#00ffff"/>
    <path d="M2.7313,3.12532L4.18199,3.12532" fill="#00000000" stroke-linejoin="miter" stroke-linecap="butt" stroke-width="0.1611875" stroke="#00ffff"/>
    <path d="m4.58496,3.12532l1.45069,0" fill="#00000000" stroke-linejoin="miter" stroke-linecap="butt" stroke-width="0.1611875" stroke="#00ffff"/>
    <path d="M-0.97601,4.09245L0.47468,4.09245" fill="#00000000" stroke-linejoin="miter" stroke-linecap="butt" stroke-width="0.1611875" stroke="#00ffff"/>
    <path d="m0.87765,4.09245l1.45069,0" fill="#00000000" stroke-linejoin="miter" stroke-linecap="butt" stroke-width="0.1611875" stroke="#00ffff"/>
    <path d="M2.7313,4.09245L4.18199,4.09245" fill="#00000000" stroke-linejoin="miter" stroke-linecap="butt" stroke-width="0.1611875" stroke="#00ffff"/>
    <path d="m4.58496,4.09245l1.45069,0" fill="#00000000" stroke-linejoin="miter" stroke-linecap="butt" stroke-width="0.1611875" stroke="#00ffff"/>
    <path d="M-0.97601,5.05957L0.47468,5.05957" fill="#00000000" stroke-linejoin="miter" stroke-linecap="butt" stroke-width="0.1611875" stroke="#00ffff"/>
    <path d="m0.87765,5.05957l1.45069,0" fill="#00000000" stroke-linejoin="miter" stroke-linecap="butt" stroke-width="0.1611875" stroke="#00ffff"/>
    <path d="M2.7313,5.05957L4.18199,5.05957" fill="#00000000" stroke-linejoin="miter" stroke-linecap="butt" stroke-width="0.1611875" stroke="#00ffff"/>
    <path d="m4.58496,5.05957l1.45069,0" fill="#00000000" stroke-linejoin="miter" stroke-linecap="butt" stroke-width="0.1611875" stroke="#00ffff"/>
    <path d="m-0.04865,0.70751l1.45069,0" fill="#00000000" stroke-linejoin="miter" stroke-linecap="butt" stroke-width="0.1611875" stroke="#00ffff"/>
    <path d="m1.80501,0.70751l1.45069,0" fill="#00000000" stroke-linejoin="miter" stroke-linecap="butt" stroke-width="0.1611875" stroke="#00ffff"/>
    <path d="m3.65867,0.70751l1.45069,0" fill="#00000000" stroke-linejoin="miter" stroke-linecap="butt" stroke-width="0.1611875" stroke="#00ffff"/>
    <path d="m-0.04865,1.67464l1.45069,0" fill="#00000000" stroke-linejoin="miter" stroke-linecap="butt" stroke-width="0.1611875" stroke="#00ffff"/>
    <path d="m1.80501,1.67464l1.45069,0" fill="#00000000" stroke-linejoin="miter" stroke-linecap="butt" stroke-width="0.1611875" stroke="#00ffff"/>
    <path d="m3.65867,1.67464l1.45069,0" fill="#00000000" stroke-linejoin="miter" stroke-linecap="butt" stroke-width="0.1611875" stroke="#00ffff"/>
    <path d="m-0.04865,2.64176l1.45069,0" fill="#00000000" stroke-linejoin="miter" stroke-linecap="butt" stroke-width="0.1611875" stroke="#00ffff"/>
    <path d="m1.80501,2.64176l1.45069,0" fill="#00000000" stroke-linejoin="miter" stroke-linecap="butt" stroke-width="0.1611875" stroke="#00ffff"/>
    <path d="m3.65867,2.64176l1.45069,0" fill="#00000000" stroke-linejoin="miter" stroke-linecap="butt" stroke-width="0.1611875" stroke="#00ffff"/>
    <path d="m-0.04865,3.60889l1.45069,0" fill="#00000000" stroke-linejoin="miter" stroke-linecap="butt" stroke-width="0.1611875" stroke="#00ffff"/>
    <path d="m1.80501,3.60889l1.45069,0" fill="#00000000" stroke-linejoin="miter" stroke-linecap="butt" stroke-width="0.1611875" stroke="#00ffff"/>
    <path d="m3.65867,3.60889l1.45069,0" fill="#00000000" stroke-linejoin="miter" stroke-linecap="butt" stroke-width="0.1611875" stroke="#00ffff"/>
    <path d="m-0.04865,4.57601l1.45069,0" fill="#00000000" stroke-linejoin="miter" stroke-linecap="butt" stroke-width="0.1611875" stroke="#00ffff"/>
    <path d="m1.80501,4.57601l1.45069,0" fill="#00000000" stroke-linejoin="miter" stroke-linecap="butt" stroke-width="0.1611875" stroke="#00ffff"/>
    <path d="m3.65867,4.57601l1.45069,0" fill="#00000000" stroke-linejoin="miter" stroke-linecap="butt" stroke-width="0.1611875" stroke="#00ffff"/>
  </g>
</svg>
