<?xml version="1.0" ?>
<svg xmlns="http://www.w3.org/2000/svg" width="132.32495" height="132.3249925" viewBox="0 0 5.292998 5.2929997">
  <path d="m-0.16697,4.89879 l1.29783,-1.0781 1.29783,-1.0781m0.41628,-0.3458 l1.29783,-1.0781 1.29783,-1.07811" fill="#00000000" stroke-linejoin="miter" stroke-linecap="butt" stroke-width="0.27831793" stroke="#d15c00"/>
  <path d="m1.47927,3.82069c0,0.19242 -0.15599,0.34841 -0.34841,0.34841 -0.19242,0 -0.34842,-0.15599 -0.34842,-0.34841 0,-0.19242 0.15599,-0.34841 0.34842,-0.34841 0.19242,0 0.34841,0.15599 0.34841,0.34841z" fill="#d15c00" stroke-width="0.043637503" stroke="#00000000"/>
  <path d="m4.49121,1.3187c0,0.19242 -0.15599,0.34841 -0.34842,0.34841 -0.19242,0 -0.34841,-0.15599 -0.34841,-0.34841 0,-0.19242 0.15599,-0.34841 0.34841,-0.34841 0.19243,0 0.34842,0.15599 0.34842,0.34841z" fill="#d15c00" stroke-width="0.043637503" stroke="#00000000"/>
</svg>
