<?xml version="1.0" ?>
<svg xmlns="http://www.w3.org/2000/svg" width="128" height="128" viewBox="0 0 5.232998 5.233">
  <path d="m0.43359,4.83793l1.02681,-1.02681 1.0268,-1.0268" fill="#00000000" stroke-linejoin="miter" stroke-linecap="butt" stroke-width="0.19732609" stroke="#000000"/>
  <path d="m2.80398,2.46755l0.99958,-0.99958 0.99958,-0.99958" fill="#00000000" stroke-linejoin="miter" stroke-linecap="butt" stroke-width="0.19469233" stroke="#000000"/>
  <path d="m1.76036,3.81111c0,0.16569 -0.13431,0.3 -0.3,0.3 -0.16568,0 -0.3,-0.13431 -0.3,-0.3 -0,-0.16569 0.13431,-0.3 0.3,-0.3 0.16569,0 0.29999,0.13431 0.3,0.3z" fill="#000000" stroke-width="0.04233332" stroke="#00000000"/>
  <path d="m4.10352,1.46794c0,0.16569 -0.13431,0.3 -0.3,0.3 -0.16568,0 -0.29999,-0.13431 -0.3,-0.3 -0,-0.16569 0.13431,-0.3 0.3,-0.3 0.16569,0 0.3,0.13431 0.3,0.3z" fill="#000000" stroke-width="0.04233332" stroke="#00000000"/>
</svg>
