<?xml version="1.0" ?>
<svg height="5.2335.2335.2335.2335.2335.2335.2335.2335.2335.233" viewBox="0 0 5.232998 5.233" width="5.2329985.2329985.2329985.2329985.2329985.2329985.2329985.2329985.2329985.232998" xmlns="http://www.w3.org/2000/svg">
  <path d="m-0.26183,5.49484l5.60636,-5.60636" fill="#00000000" stroke="#000000" stroke-linecap="butt" stroke-linejoin="miter" stroke-width="0.40343133"/>
  <path d="m2.56706,3.11591c-0,0.24853 -0.20147,0.45 -0.45,0.45 -0.24853,-0 -0.45,-0.20147 -0.45,-0.45 0,-0.24853 0.20147,-0.45 0.45,-0.45 0.24853,0 0.45,0.20147 0.45,0.45z" fill="#000000" stroke="#00000000"/>
  <path d="m3.41559,2.26738c-0,0.24853 -0.20147,0.45 -0.45,0.45 -0.24853,-0 -0.45,-0.20147 -0.45,-0.45 0,-0.24853 0.20147,-0.45 0.45,-0.45 0.24853,0 0.45,0.20147 0.45,0.45z" fill="#000000" stroke="#00000000"/>
</svg>
