<?xml version="1.0" ?>
<svg height="5.29299975.29299975.29299975.29299975.29299975.29299975.29299975.29299975.29299975.2929997" viewBox="0 0 5.292998 5.2929997" width="5.2929985.2929985.2929985.2929985.2929985.2929985.2929985.2929985.2929985.292998" xmlns="http://www.w3.org/2000/svg">
  <path d="m2.68243,4.00414c-0.76952,0 -1.39343,-0.62391 -1.39343,-1.39342 0,-0.76954 0.62391,-1.39345 1.39343,-1.39345 0.76954,0 1.39345,0.62391 1.39345,1.39345 0,0.76951 -0.62391,1.39342 -1.39345,1.39342z" fill="#00000000" stroke="#ec008c" stroke-linecap="butt" stroke-linejoin="miter" stroke-width="0.24384724"/>
  <path d="m2.68237,4.70081c-1.15435,0 -2.09019,-0.93584 -2.09019,-2.09016 0,-1.15435 0.93584,-2.09019 2.09019,-2.09019 1.15432,0 2.09017,0.93584 2.09017,2.09019 0,1.15432 -0.93584,2.09016 -2.09017,2.09016z" fill="#00000000" stroke="#ec008c" stroke-linecap="butt" stroke-linejoin="miter" stroke-width="0.24384724"/>
</svg>
