<?xml version="1.0" ?>
<svg xmlns="http://www.w3.org/2000/svg" width="128" height="128" viewBox="0 0 5.023002 5.022998">
  <path d="m-0.28588,-0.24504h5.54031v5.48586L-0.28588,5.24081Z" fill="#ffba36" stroke-width="0.04646318" stroke="#00000000"/>
  <g>
    <path d="m0.37383,0.09799c0,0.16568 -0.13432,0.3 -0.3,0.3 -0.16568,0 -0.3,-0.13432 -0.3,-0.3 0,-0.16568 0.13432,-0.3 0.3,-0.3 0.16568,0 0.3,0.13432 0.3,0.3z" fill="#ffffff" stroke="#00000000"/>
    <path d="m1.85875,0.09799c0,0.16568 -0.13431,0.3 -0.3,0.3 -0.16568,0 -0.3,-0.13432 -0.3,-0.3 0,-0.16568 0.13432,-0.3 0.3,-0.3 0.16569,0 0.3,0.13432 0.3,0.3z" fill="#ffffff" stroke="#00000000"/>
    <path d="m1.11629,0.84046c0,0.16568 -0.13432,0.3 -0.3,0.3 -0.16569,0 -0.3,-0.13432 -0.3,-0.3 0,-0.16569 0.13432,-0.3 0.3,-0.3 0.16568,0 0.3,0.13431 0.3,0.3z" fill="#ffffff" stroke="#00000000"/>
    <path d="m0.37383,1.58292c0,0.16569 -0.13432,0.3 -0.3,0.3 -0.16569,0 -0.3,-0.13432 -0.3,-0.3 0,-0.16568 0.13431,-0.3 0.3,-0.3 0.16568,0 0.3,0.13432 0.3,0.3z" fill="#ffffff" stroke="#00000000"/>
    <path d="m3.34367,0.09799c0,0.16568 -0.13432,0.3 -0.3,0.3 -0.16568,0 -0.3,-0.13432 -0.3,-0.3 0,-0.16568 0.13432,-0.3 0.3,-0.3 0.16568,0 0.3,0.13432 0.3,0.3z" fill="#ffffff" stroke="#00000000"/>
    <path d="m2.60121,0.84046c0,0.16568 -0.13432,0.3 -0.3,0.3 -0.16568,0 -0.3,-0.13432 -0.3,-0.3 0,-0.16568 0.13432,-0.3 0.3,-0.3 0.16568,0 0.3,0.13432 0.3,0.3z" fill="#ffffff" stroke="#00000000"/>
    <path d="m1.85875,1.58293c0,0.16568 -0.13431,0.3 -0.3,0.3 -0.16568,0 -0.3,-0.13432 -0.3,-0.3 0,-0.16569 0.13432,-0.3 0.3,-0.3 0.16569,0 0.3,0.13432 0.3,0.3z" fill="#ffffff" stroke="#00000000"/>
    <path d="m1.11629,2.32538c0,0.16569 -0.13432,0.3 -0.3,0.3 -0.16568,0 -0.3,-0.13431 -0.3,-0.3 0,-0.16568 0.13432,-0.3 0.3,-0.3 0.16569,0 0.3,0.13432 0.3,0.3z" fill="#ffffff" stroke="#00000000"/>
    <path d="m0.37383,3.06785c0,0.16568 -0.13432,0.3 -0.3,0.3 -0.16569,0 -0.3,-0.13432 -0.3,-0.3 0,-0.16568 0.13431,-0.3 0.3,-0.3 0.16568,0 0.3,0.13432 0.3,0.3z" fill="#ffffff" stroke="#00000000"/>
    <path d="m4.82859,0.09799c0,0.16568 -0.13431,0.3 -0.3,0.3 -0.16568,0 -0.3,-0.13432 -0.3,-0.3 0,-0.16568 0.13432,-0.3 0.3,-0.3 0.16569,0 0.3,0.13432 0.3,0.3z" fill="#ffffff" stroke="#00000000"/>
    <path d="m4.08614,0.84046c0,0.16568 -0.13432,0.3 -0.3,0.3 -0.16569,0 -0.3,-0.13432 -0.3,-0.3 0,-0.16568 0.13432,-0.3 0.3,-0.3 0.16568,0 0.3,0.13432 0.3,0.3z" fill="#ffffff" stroke="#00000000"/>
    <path d="m3.34367,1.58293c0,0.16568 -0.13432,0.3 -0.3,0.3 -0.16569,0 -0.3,-0.13432 -0.3,-0.3 0,-0.16569 0.13431,-0.3 0.3,-0.3 0.16568,0 0.3,0.13432 0.3,0.3z" fill="#ffffff" stroke="#00000000"/>
    <path d="m2.60121,2.32538c0,0.16569 -0.13432,0.3 -0.3,0.3 -0.16568,0 -0.3,-0.13431 -0.3,-0.3 0,-0.16568 0.13432,-0.3 0.3,-0.3 0.16568,0 0.3,0.13432 0.3,0.3z" fill="#ffffff" stroke="#00000000"/>
    <path d="m1.85875,3.06785c0,0.16568 -0.13432,0.3 -0.3,0.3 -0.16568,0 -0.3,-0.13432 -0.3,-0.3 0,-0.16568 0.13432,-0.3 0.3,-0.3 0.16568,0 0.3,0.13432 0.3,0.3z" fill="#ffffff" stroke="#00000000"/>
    <path d="m1.11629,3.8103c0,0.16568 -0.13432,0.3 -0.3,0.3 -0.16568,0 -0.3,-0.13432 -0.3,-0.3 0,-0.16569 0.13432,-0.3 0.3,-0.3 0.16569,0 0.3,0.13431 0.3,0.3z" fill="#ffffff" stroke="#00000000"/>
    <path d="m0.37383,4.55277c0,0.16569 -0.13432,0.3 -0.3,0.3 -0.16569,0 -0.3,-0.13432 -0.3,-0.3 0,-0.16568 0.13432,-0.3 0.3,-0.3 0.16568,0 0.3,0.13432 0.3,0.3z" fill="#ffffff" stroke="#00000000"/>
    <path d="m5.57106,0.84046c0,0.16568 -0.13432,0.3 -0.3,0.3 -0.16568,0 -0.3,-0.13432 -0.3,-0.3 0,-0.16568 0.13432,-0.3 0.3,-0.3 0.16568,0 0.3,0.13432 0.3,0.3z" fill="#ffffff" stroke="#00000000"/>
    <path d="m4.82859,1.58293c0,0.16568 -0.13431,0.3 -0.3,0.3 -0.16568,0 -0.3,-0.13432 -0.3,-0.3 0,-0.16569 0.13432,-0.3 0.3,-0.3 0.16569,0 0.3,0.13431 0.3,0.3z" fill="#ffffff" stroke="#00000000"/>
    <path d="m4.08614,2.32538c0,0.16569 -0.13432,0.3 -0.3,0.3 -0.16568,0 -0.3,-0.13432 -0.3,-0.3 0,-0.16568 0.13432,-0.3 0.3,-0.3 0.16569,0 0.3,0.13432 0.3,0.3z" fill="#ffffff" stroke="#00000000"/>
    <path d="m3.34367,3.06785c0,0.16568 -0.13432,0.3 -0.3,0.3 -0.16569,0 -0.3,-0.13432 -0.3,-0.3 0,-0.16568 0.13431,-0.3 0.3,-0.3 0.16568,0 0.3,0.13432 0.3,0.3z" fill="#ffffff" stroke="#00000000"/>
    <path d="m2.60121,3.8103c0,0.16568 -0.13432,0.3 -0.3,0.3 -0.16568,0 -0.3,-0.13432 -0.3,-0.3 0,-0.16568 0.13432,-0.3 0.3,-0.3 0.16568,0 0.3,0.13432 0.3,0.3z" fill="#ffffff" stroke="#00000000"/>
    <path d="m1.85875,4.55277c0,0.16568 -0.13432,0.3 -0.3,0.3 -0.16568,0 -0.3,-0.13432 -0.3,-0.3 0,-0.16569 0.13432,-0.3 0.3,-0.3 0.16568,0 0.3,0.13432 0.3,0.3z" fill="#ffffff" stroke="#00000000"/>
    <path d="m1.11628,5.29523c0,0.16569 -0.13431,0.3 -0.3,0.3 -0.16568,0 -0.3,-0.13431 -0.3,-0.3 0,-0.16568 0.13432,-0.3 0.3,-0.3 0.16569,0 0.3,0.13432 0.3,0.3z" fill="#ffffff" stroke="#00000000"/>
    <path d="m5.57106,2.32538c0,0.16569 -0.13432,0.3 -0.3,0.3 -0.16568,0 -0.3,-0.13432 -0.3,-0.3 0,-0.16568 0.13432,-0.3 0.3,-0.3 0.16568,0 0.3,0.13432 0.3,0.3z" fill="#ffffff" stroke="#00000000"/>
    <path d="m4.82859,3.06785c0,0.16568 -0.13432,0.3 -0.3,0.3 -0.16568,0 -0.3,-0.13432 -0.3,-0.3 0,-0.16568 0.13432,-0.3 0.3,-0.3 0.16568,0 0.3,0.13432 0.3,0.3z" fill="#ffffff" stroke="#00000000"/>
    <path d="m4.08614,3.8103c0,0.16568 -0.13432,0.3 -0.3,0.3 -0.16568,0 -0.3,-0.13432 -0.3,-0.3 0,-0.16568 0.13432,-0.3 0.3,-0.3 0.16569,0 0.3,0.13432 0.3,0.3z" fill="#ffffff" stroke="#00000000"/>
    <path d="m3.34367,4.55277c0,0.16568 -0.13432,0.3 -0.3,0.3 -0.16569,0 -0.3,-0.13432 -0.3,-0.3 0,-0.16569 0.13432,-0.3 0.3,-0.3 0.16568,0 0.3,0.13432 0.3,0.3z" fill="#ffffff" stroke="#00000000"/>
    <path d="m2.60121,5.29523c0,0.16569 -0.13432,0.3 -0.3,0.3 -0.16568,0 -0.3,-0.13431 -0.3,-0.3 0,-0.16568 0.13432,-0.3 0.3,-0.3 0.16568,0 0.3,0.13432 0.3,0.3z" fill="#ffffff" stroke="#00000000"/>
    <path d="m5.57106,3.8103c0,0.16568 -0.13432,0.3 -0.3,0.3 -0.16568,0 -0.3,-0.13432 -0.3,-0.3 0,-0.16568 0.13432,-0.3 0.3,-0.3 0.16568,0 0.3,0.13432 0.3,0.3z" fill="#ffffff" stroke="#00000000"/>
    <path d="m4.82859,4.55277c0,0.16568 -0.13432,0.3 -0.3,0.3 -0.16568,0 -0.3,-0.13432 -0.3,-0.3 0,-0.16569 0.13432,-0.3 0.3,-0.3 0.16568,0 0.3,0.13431 0.3,0.3z" fill="#ffffff" stroke="#00000000"/>
    <path d="m4.08614,5.29523c0,0.16569 -0.13432,0.3 -0.3,0.3 -0.16568,0 -0.3,-0.13432 -0.3,-0.3 0,-0.16568 0.13432,-0.3 0.3,-0.3 0.16569,0 0.3,0.13432 0.3,0.3z" fill="#ffffff" stroke="#00000000"/>
    <path d="m5.57106,5.29523c0,0.16569 -0.13432,0.3 -0.3,0.3 -0.16568,0 -0.3,-0.13432 -0.3,-0.3 0,-0.16568 0.13432,-0.3 0.3,-0.3 0.16568,0 0.3,0.13432 0.3,0.3z" fill="#ffffff" stroke="#00000000"/>
  </g>
</svg>
