<?xml version="1.0" ?>
<svg height="5.3979985.3979985.3979985.3979985.3979985.3979985.3979985.3979985.3979985.397998" viewBox="0 0 5.3980017 5.397998" width="5.39800175.39800175.39800175.39800175.39800175.39800175.39800175.39800175.39800175.3980017" xmlns="http://www.w3.org/2000/svg">
  <g>
    <path d="M1.55834,5.20041L1.55834,0.17741" fill="#00000000" stroke="#ffffff" stroke-linecap="butt" stroke-linejoin="miter" stroke-width="0.59999996"/>
  </g>
  <path d="m3.71034,5.20041v-5.023" fill="#00000000" stroke="#ffffff" stroke-linecap="butt" stroke-linejoin="miter" stroke-width="0.59999996"/>
  <path d="M4.01035,5.11938L3.41035,5.11938" fill="#00000000" stroke="#000000" stroke-linecap="butt" stroke-linejoin="miter" stroke-width="0.14999999"/>
  <path d="M4.01035,4.30923L3.41035,4.30923" fill="#00000000" stroke="#000000" stroke-linecap="butt" stroke-linejoin="miter" stroke-width="0.14999999"/>
  <path d="M4.01035,3.49907L3.41035,3.49907" fill="#00000000" stroke="#000000" stroke-linecap="butt" stroke-linejoin="miter" stroke-width="0.14999999"/>
  <path d="M4.01035,2.68892L3.41035,2.68892" fill="#00000000" stroke="#000000" stroke-linecap="butt" stroke-linejoin="miter" stroke-width="0.14999999"/>
  <path d="M4.01035,1.87875L3.41035,1.87875" fill="#00000000" stroke="#000000" stroke-linecap="butt" stroke-linejoin="miter" stroke-width="0.14999999"/>
  <path d="M4.01035,1.06859L3.41035,1.06859" fill="#00000000" stroke="#000000" stroke-linecap="butt" stroke-linejoin="miter" stroke-width="0.14999999"/>
  <path d="M4.01035,0.25844L3.41035,0.25844" fill="#00000000" stroke="#000000" stroke-linecap="butt" stroke-linejoin="miter" stroke-width="0.14999999"/>
  <path d="M1.88834,5.11938L1.22834,5.11938" fill="#00000000" stroke="#000000" stroke-linecap="butt" stroke-linejoin="miter" stroke-width="0.14999999"/>
  <path d="M1.88834,4.30923L1.22834,4.30923" fill="#00000000" stroke="#000000" stroke-linecap="butt" stroke-linejoin="miter" stroke-width="0.14999999"/>
  <path d="M1.88834,3.49907L1.22834,3.49907" fill="#00000000" stroke="#000000" stroke-linecap="butt" stroke-linejoin="miter" stroke-width="0.14999999"/>
  <path d="M1.88834,2.68892L1.22834,2.68892" fill="#00000000" stroke="#000000" stroke-linecap="butt" stroke-linejoin="miter" stroke-width="0.14999999"/>
  <path d="M1.88834,1.87875L1.22834,1.87875" fill="#00000000" stroke="#000000" stroke-linecap="butt" stroke-linejoin="miter" stroke-width="0.14999999"/>
  <path d="M1.88834,1.06859L1.22834,1.06859" fill="#00000000" stroke="#000000" stroke-linecap="butt" stroke-linejoin="miter" stroke-width="0.14999999"/>
  <path d="M1.88834,0.25844L1.22834,0.25844" fill="#00000000" stroke="#000000" stroke-linecap="butt" stroke-linejoin="miter" stroke-width="0.14999999"/>
  <path d="m1.18335,5.20041v-5.023" fill="#00000000" stroke="#000000" stroke-linecap="butt" stroke-linejoin="miter" stroke-width="0.14999999"/>
  <path d="m1.93334,5.20041v-5.023" fill="#00000000" stroke="#000000" stroke-linecap="butt" stroke-linejoin="miter" stroke-width="0.14999999"/>
</svg>
