<?xml version="1.0" ?>
<svg height="5.2335.2335.2335.2335.2335.2335.2335.2335.2335.233" viewBox="0 0 5.232998 5.233" width="5.2329985.2329985.2329985.2329985.2329985.2329985.2329985.2329985.2329985.232998" xmlns="http://www.w3.org/2000/svg">
  <path d="m0.43359,4.83793l1.02681,-1.02681 1.0268,-1.0268" fill="#00000000" stroke="#000000" stroke-linecap="butt" stroke-linejoin="miter" stroke-width="0.19732609"/>
  <path d="m2.80398,2.46755l0.99958,-0.99958 0.99958,-0.99958" fill="#00000000" stroke="#000000" stroke-linecap="butt" stroke-linejoin="miter" stroke-width="0.19469233"/>
  <path d="m1.76036,3.81111c0,0.16569 -0.13431,0.3 -0.3,0.3 -0.16568,0 -0.3,-0.13431 -0.3,-0.3 -0,-0.16569 0.13431,-0.3 0.3,-0.3 0.16569,0 0.29999,0.13431 0.3,0.3z" fill="#000000" stroke="#00000000" stroke-width="0.04233332"/>
  <path d="m4.10352,1.46794c0,0.16569 -0.13431,0.3 -0.3,0.3 -0.16568,0 -0.29999,-0.13431 -0.3,-0.3 -0,-0.16569 0.13431,-0.3 0.3,-0.3 0.16569,0 0.3,0.13431 0.3,0.3z" fill="#000000" stroke="#00000000" stroke-width="0.04233332"/>
</svg>
