<?xml version="1.0" ?>
<svg height="5.29299975.29299975.29299975.29299975.29299975.29299975.29299975.29299975.29299975.2929997" viewBox="0 0 5.292998 5.2929997" width="5.2929985.2929985.2929985.2929985.2929985.2929985.2929985.2929985.2929985.292998" xmlns="http://www.w3.org/2000/svg">
  <path d="m0.67007,5.0437c0,0.11773 -0.09543,0.21316 -0.21316,0.21316 -0.11773,0 -0.21316,-0.09544 -0.21316,-0.21316 0,-0.11772 0.09544,-0.21316 0.21316,-0.21316 0.11773,0 0.21316,0.09544 0.21316,0.21316z" fill="#00ffff" stroke="#00000000"/>
  <path d="m0.7953,4.26018c0,0.11773 -0.09544,0.21316 -0.21316,0.21316 -0.11773,0 -0.21316,-0.09544 -0.21316,-0.21316 0,-0.11772 0.09544,-0.21316 0.21316,-0.21316 0.11772,0 0.21316,0.09544 0.21316,0.21316z" fill="#00ffff" stroke="#00000000"/>
  <path d="m1.09417,3.54085c0,0.11772 -0.09543,0.21316 -0.21316,0.21316 -0.11773,0 -0.21316,-0.09544 -0.21316,-0.21316 0,-0.11773 0.09544,-0.21316 0.21316,-0.21316 0.11773,0 0.21316,0.09544 0.21316,0.21316z" fill="#00ffff" stroke="#00000000"/>
  <path d="m1.66036,3.01241c0,0.11773 -0.09544,0.21316 -0.21316,0.21316 -0.11772,0 -0.21316,-0.09543 -0.21316,-0.21316 0,-0.11773 0.09544,-0.21316 0.21316,-0.21316 0.11773,0 0.21316,0.09543 0.21316,0.21316z" fill="#00ffff" stroke="#00000000"/>
  <path d="m2.40199,2.75839c0,0.11772 -0.09543,0.21316 -0.21316,0.21316 -0.11773,0 -0.21316,-0.09544 -0.21316,-0.21316 0,-0.11773 0.09544,-0.21316 0.21316,-0.21316 0.11773,0 0.21316,0.09544 0.21316,0.21316z" fill="#00ffff" stroke="#00000000"/>
  <path d="m3.17103,2.59715c0,0.11772 -0.09544,0.21316 -0.21316,0.21316 -0.11772,0 -0.21316,-0.09544 -0.21316,-0.21316 0,-0.11773 0.09544,-0.21316 0.21316,-0.21316 0.11773,0 0.21316,0.09544 0.21316,0.21316z" fill="#00ffff" stroke="#00000000"/>
  <path d="m3.89959,2.30834c0,0.11772 -0.09544,0.21316 -0.21316,0.21316 -0.11773,0 -0.21316,-0.09544 -0.21316,-0.21316 0,-0.11773 0.09544,-0.21316 0.21316,-0.21316 0.11772,0 0.21316,0.09544 0.21316,0.21316z" fill="#00ffff" stroke="#00000000"/>
  <path d="m4.46181,1.76894c0,0.11772 -0.09544,0.21316 -0.21316,0.21316 -0.11772,0 -0.21316,-0.09544 -0.21316,-0.21316 0,-0.11773 0.09544,-0.21316 0.21316,-0.21316 0.11773,0 0.21316,0.09544 0.21316,0.21316z" fill="#00ffff" stroke="#00000000"/>
  <path d="m4.799,1.06988c0,0.11773 -0.09544,0.21316 -0.21316,0.21316 -0.11773,0 -0.21316,-0.09543 -0.21316,-0.21316 0,-0.11773 0.09543,-0.21316 0.21316,-0.21316 0.11773,0 0.21316,0.09544 0.21316,0.21316z" fill="#00ffff" stroke="#00000000"/>
  <path d="m4.98432,0.29746c0,0.11772 -0.09544,0.21316 -0.21316,0.21316 -0.11773,0 -0.21316,-0.09544 -0.21316,-0.21316 0,-0.11773 0.09544,-0.21316 0.21316,-0.21316 0.11772,0 0.21316,0.09544 0.21316,0.21316z" fill="#00ffff" stroke="#00000000"/>
</svg>
