<?xml version="1.0" ?>
<svg xmlns="http://www.w3.org/2000/svg" width="128" height="128" viewBox="0 0 5.3 5.3">
  <path d="m1.70626,3.97687h0.48086m0.3,0h0.48086m0.3,0h0.48085m0.3,0h0.31243L4.36126,3.80844m0,-0.3v-0.48085m0,-0.3v-0.48086m0,-0.3v-0.48086" fill="#00000000" stroke-linejoin="miter" stroke-linecap="butt" stroke-width="0.20999999" stroke="#1f7f0b"/>
  <path d="m1.29725,3.97687c0,0.0911 -0.0739,0.165 -0.16499,0.165 -0.0911,0 -0.16501,-0.0739 -0.16501,-0.165 0,-0.0911 0.0739,-0.165 0.16501,-0.165 0.0911,0 0.16499,0.0739 0.16499,0.165z" fill="#000000" stroke-width="0.04233333" stroke="#00000000"/>
  <path d="m1.29725,3.33109c0,0.0911 -0.0739,0.16501 -0.16499,0.16501 -0.0911,0 -0.16501,-0.0739 -0.16501,-0.16501 0,-0.0911 0.0739,-0.165 0.16501,-0.165 0.0911,0 0.16499,0.0739 0.16499,0.165z" fill="#000000" stroke-width="0.04233333" stroke="#00000000"/>
  <path d="m1.29725,2.6853c0,0.0911 -0.0739,0.165 -0.16499,0.165 -0.0911,0 -0.16501,-0.0739 -0.16501,-0.165 0,-0.0911 0.0739,-0.165 0.16501,-0.165 0.0911,0 0.16499,0.0739 0.16499,0.165z" fill="#000000" stroke-width="0.04233333" stroke="#00000000"/>
  <path d="m1.29725,2.03952c0,0.0911 -0.0739,0.165 -0.16499,0.165 -0.0911,0 -0.16501,-0.0739 -0.16501,-0.165 0,-0.0911 0.0739,-0.165 0.16501,-0.165 0.0911,0 0.16499,0.0739 0.16499,0.165z" fill="#000000" stroke-width="0.04233333" stroke="#00000000"/>
  <path d="m1.29725,1.39374c0,0.0911 -0.0739,0.165 -0.16499,0.165 -0.0911,0 -0.16501,-0.0739 -0.16501,-0.165 0,-0.0911 0.0739,-0.165 0.16501,-0.165 0.0911,0 0.16499,0.0739 0.16499,0.165z" fill="#000000" stroke-width="0.04233333" stroke="#00000000"/>
  <path d="m1.65614,1.10687c0,0.0911 -0.0739,0.165 -0.165,0.165 -0.0911,0 -0.165,-0.0739 -0.165,-0.165 0,-0.0911 0.0739,-0.165 0.165,-0.165 0.0911,0 0.165,0.0739 0.165,0.165z" fill="#000000" stroke-width="0.04233333" stroke="#00000000"/>
  <path d="m2.30192,1.10687c0,0.0911 -0.0739,0.165 -0.165,0.165 -0.0911,0 -0.165,-0.0739 -0.165,-0.165 0,-0.0911 0.0739,-0.165 0.165,-0.165 0.0911,0 0.165,0.0739 0.165,0.165z" fill="#000000" stroke-width="0.04233333" stroke="#00000000"/>
  <path d="m2.9477,1.10687c0,0.0911 -0.0739,0.165 -0.165,0.165 -0.0911,0 -0.165,-0.0739 -0.165,-0.165 0,-0.0911 0.0739,-0.165 0.165,-0.165 0.0911,0 0.165,0.0739 0.165,0.165z" fill="#000000" stroke-width="0.04233333" stroke="#00000000"/>
  <path d="m3.59348,1.10687c0,0.0911 -0.0739,0.165 -0.165,0.165 -0.0911,0 -0.165,-0.0739 -0.165,-0.165 0,-0.0911 0.0739,-0.165 0.165,-0.165 0.0911,0 0.165,0.0739 0.165,0.165z" fill="#000000" stroke-width="0.04233333" stroke="#00000000"/>
  <path d="m4.23925,1.10687c0,0.0911 -0.0739,0.165 -0.165,0.165 -0.0911,0 -0.165,-0.0739 -0.165,-0.165 0,-0.0911 0.0739,-0.165 0.165,-0.165 0.0911,0 0.165,0.0739 0.165,0.165z" fill="#000000" stroke-width="0.04233333" stroke="#00000000"/>
</svg>
