<?xml version="1.0" ?>
<svg height="5.027085.027085.027085.027085.027085.027085.027085.027085.027085.02708" viewBox="0 0 5.027081 5.02708" width="5.0270815.0270815.0270815.0270815.0270815.0270815.0270815.0270815.0270815.027081" xmlns="http://www.w3.org/2000/svg">
  <path d="m0,0h5.02708v5.02708h-5.02708z" fill="#ffdd9a" stroke="#00000000" stroke-width="0.04280228"/>
  <path d="m0.71378,0.13084c0,0.0663 -0.05373,0.12 -0.12,0.12 -0.06627,0 -0.12,-0.0537 -0.12,-0.12 0,-0.0663 0.05373,-0.12 0.12,-0.12 0.06627,0 0.12,0.0537 0.12,0.12z" fill="#000000" stroke="#00000000" stroke-width="0.04233333"/>
  <path d="m0.23648,0.60814c0,0.0663 -0.05373,0.12 -0.12,0.12 -0.06628,0 -0.12,-0.0537 -0.12,-0.12 0,-0.0663 0.05373,-0.12001 0.12,-0.12001 0.06627,0 0.12,0.0537 0.12,0.12001z" fill="#000000" stroke="#00000000" stroke-width="0.04233333"/>
  <path d="m1.66837,0.13084c0,0.0663 -0.05372,0.12 -0.12,0.12 -0.06628,0 -0.12,-0.0537 -0.12,-0.12 0,-0.0663 0.05373,-0.12 0.12,-0.12 0.06627,0 0.12,0.0537 0.12,0.12z" fill="#000000" stroke="#00000000" stroke-width="0.04233333"/>
  <path d="m1.19108,0.60814c0,0.0663 -0.05372,0.12 -0.12,0.12 -0.06627,0 -0.12,-0.0537 -0.12,-0.12 0,-0.0663 0.05373,-0.12001 0.12,-0.12001 0.06628,0 0.12,0.0537 0.12,0.12001z" fill="#000000" stroke="#00000000" stroke-width="0.04233333"/>
  <path d="m0.71378,1.08543c0,0.0663 -0.05373,0.12001 -0.12,0.12001 -0.06627,0 -0.12,-0.0537 -0.12,-0.12001 0,-0.0663 0.05373,-0.11999 0.12,-0.11999 0.06627,0 0.12,0.0537 0.12,0.11999z" fill="#000000" stroke="#00000000" stroke-width="0.04233333"/>
  <path d="m0.23648,1.56273c0,0.0663 -0.05373,0.12 -0.12,0.12 -0.06628,0 -0.12,-0.0537 -0.12,-0.12 0,-0.0663 0.05373,-0.12 0.12,-0.12 0.06627,0 0.12,0.0537 0.12,0.12z" fill="#000000" stroke="#00000000" stroke-width="0.04233333"/>
  <path d="m2.62296,0.13084c0,0.0663 -0.05373,0.12 -0.12,0.12 -0.06627,0 -0.12,-0.0537 -0.12,-0.12 0,-0.0663 0.05372,-0.12 0.12,-0.12 0.06628,0 0.12,0.0537 0.12,0.12z" fill="#000000" stroke="#00000000" stroke-width="0.04233333"/>
  <path d="m2.14567,0.60814c0,0.0663 -0.05373,0.12 -0.12,0.12 -0.06627,0 -0.12,-0.0537 -0.12,-0.12 0,-0.0663 0.05372,-0.12001 0.12,-0.12001 0.06627,0 0.12,0.0537 0.12,0.12001z" fill="#000000" stroke="#00000000" stroke-width="0.04233333"/>
  <path d="m1.66837,1.08543c0,0.0663 -0.05372,0.12001 -0.12,0.12001 -0.06628,0 -0.12,-0.0537 -0.12,-0.12001 0,-0.0663 0.05373,-0.11999 0.12,-0.11999 0.06627,0 0.12,0.0537 0.12,0.11999z" fill="#000000" stroke="#00000000" stroke-width="0.04233333"/>
  <path d="m1.19108,1.56273c0,0.0663 -0.05372,0.12 -0.12,0.12 -0.06627,0 -0.12,-0.0537 -0.12,-0.12 0,-0.0663 0.05373,-0.12 0.12,-0.12 0.06628,0 0.12,0.0537 0.12,0.12z" fill="#000000" stroke="#00000000" stroke-width="0.04233333"/>
  <path d="m0.71378,2.04003c0,0.0663 -0.05373,0.12 -0.12,0.12 -0.06628,0 -0.12,-0.0537 -0.12,-0.12 0,-0.0663 0.05372,-0.12 0.12,-0.12 0.06627,0 0.12,0.0537 0.12,0.12z" fill="#000000" stroke="#00000000" stroke-width="0.04233333"/>
  <path d="m0.23648,2.51733c0,0.0663 -0.05373,0.12 -0.12,0.12 -0.06628,0 -0.12,-0.0537 -0.12,-0.12 0,-0.0663 0.05373,-0.12 0.12,-0.12 0.06627,0 0.12,0.0537 0.12,0.12z" fill="#000000" stroke="#00000000" stroke-width="0.04233333"/>
  <path d="m3.57756,0.13084c0,0.0663 -0.05373,0.12 -0.12,0.12 -0.06627,0 -0.12,-0.0537 -0.12,-0.12 0,-0.0663 0.05373,-0.12 0.12,-0.12 0.06627,0 0.12,0.0537 0.12,0.12z" fill="#000000" stroke="#00000000" stroke-width="0.04233333"/>
  <path d="m3.10027,0.60814c0,0.0663 -0.05373,0.12 -0.12,0.12 -0.06628,0 -0.12,-0.0537 -0.12,-0.12 0,-0.0663 0.05372,-0.12001 0.12,-0.12001 0.06627,0 0.12,0.0537 0.12,0.12001z" fill="#000000" stroke="#00000000" stroke-width="0.04233333"/>
  <path d="m2.62296,1.08543c0,0.0663 -0.05373,0.12001 -0.12,0.12001 -0.06627,0 -0.12,-0.0537 -0.12,-0.12001 0,-0.0663 0.05372,-0.11999 0.12,-0.11999 0.06628,0 0.12,0.0537 0.12,0.11999z" fill="#000000" stroke="#00000000" stroke-width="0.04233333"/>
  <path d="m2.14567,1.56273c0,0.0663 -0.05373,0.12 -0.12,0.12 -0.06627,0 -0.12,-0.0537 -0.12,-0.12 0,-0.0663 0.05373,-0.12 0.12,-0.12 0.06627,0 0.12,0.0537 0.12,0.12z" fill="#000000" stroke="#00000000" stroke-width="0.04233333"/>
  <path d="m1.66837,2.04003c0,0.0663 -0.05372,0.12 -0.12,0.12 -0.06628,0 -0.12,-0.0537 -0.12,-0.12 0,-0.0663 0.05373,-0.12 0.12,-0.12 0.06627,0 0.12,0.0537 0.12,0.12z" fill="#000000" stroke="#00000000" stroke-width="0.04233333"/>
  <path d="m1.19108,2.51733c0,0.0663 -0.05372,0.12 -0.12,0.12 -0.06627,0 -0.12,-0.0537 -0.12,-0.12 0,-0.0663 0.05373,-0.12 0.12,-0.12 0.06628,0 0.12,0.0537 0.12,0.12z" fill="#000000" stroke="#00000000" stroke-width="0.04233333"/>
  <path d="m0.71378,2.99462c0,0.0663 -0.05373,0.12 -0.12,0.12 -0.06628,0 -0.12,-0.0537 -0.12,-0.12 0,-0.0663 0.05372,-0.12 0.12,-0.12 0.06627,0 0.12,0.0537 0.12,0.12z" fill="#000000" stroke="#00000000" stroke-width="0.04233333"/>
  <path d="m0.23648,3.47192c0,0.0663 -0.05373,0.12 -0.12,0.12 -0.06628,0 -0.12,-0.0537 -0.12,-0.12 0,-0.0663 0.05373,-0.12 0.12,-0.12 0.06627,0 0.12,0.0537 0.12,0.12z" fill="#000000" stroke="#00000000" stroke-width="0.04233333"/>
  <path d="m4.53215,0.13084c0,0.0663 -0.05372,0.12 -0.12,0.12 -0.06628,0 -0.12,-0.0537 -0.12,-0.12 0,-0.0663 0.05373,-0.12 0.12,-0.12 0.06627,0 0.12,0.0537 0.12,0.12z" fill="#000000" stroke="#00000000" stroke-width="0.04233333"/>
  <path d="m4.05486,0.60814c0,0.0663 -0.05373,0.12 -0.12,0.12 -0.06627,0 -0.12,-0.0537 -0.12,-0.12 0,-0.0663 0.05373,-0.12001 0.12,-0.12001 0.06628,0 0.12,0.0537 0.12,0.12001z" fill="#000000" stroke="#00000000" stroke-width="0.04233333"/>
  <path d="m3.57756,1.08543c0,0.0663 -0.05373,0.12001 -0.12,0.12001 -0.06627,0 -0.12,-0.0537 -0.12,-0.12001 0,-0.0663 0.05373,-0.11999 0.12,-0.11999 0.06627,0 0.12,0.0537 0.12,0.11999z" fill="#000000" stroke="#00000000" stroke-width="0.04233333"/>
  <path d="m3.10027,1.56273c0,0.0663 -0.05373,0.12 -0.12,0.12 -0.06628,0 -0.12,-0.0537 -0.12,-0.12 0,-0.0663 0.05372,-0.12 0.12,-0.12 0.06627,0 0.12,0.0537 0.12,0.12z" fill="#000000" stroke="#00000000" stroke-width="0.04233333"/>
  <path d="m2.62296,2.04003c0,0.0663 -0.05373,0.12 -0.12,0.12 -0.06627,0 -0.12,-0.0537 -0.12,-0.12 0,-0.0663 0.05372,-0.12 0.12,-0.12 0.06628,0 0.12,0.0537 0.12,0.12z" fill="#000000" stroke="#00000000" stroke-width="0.04233333"/>
  <path d="m2.14567,2.51733c0,0.0663 -0.05373,0.12 -0.12,0.12 -0.06628,0 -0.12,-0.0537 -0.12,-0.12 0,-0.0663 0.05373,-0.12 0.12,-0.12 0.06627,0 0.12,0.0537 0.12,0.12z" fill="#000000" stroke="#00000000" stroke-width="0.04233333"/>
  <path d="m1.66837,2.99462c0,0.0663 -0.05372,0.12 -0.12,0.12 -0.06628,0 -0.12,-0.0537 -0.12,-0.12 0,-0.0663 0.05373,-0.12 0.12,-0.12 0.06627,0 0.12,0.0537 0.12,0.12z" fill="#000000" stroke="#00000000" stroke-width="0.04233333"/>
  <path d="m1.19108,3.47192c0,0.0663 -0.05372,0.12 -0.12,0.12 -0.06627,0 -0.12,-0.0537 -0.12,-0.12 0,-0.0663 0.05373,-0.12 0.12,-0.12 0.06628,0 0.12,0.0537 0.12,0.12z" fill="#000000" stroke="#00000000" stroke-width="0.04233333"/>
  <path d="m0.71378,3.94922c0,0.0663 -0.05373,0.12 -0.12,0.12 -0.06628,0 -0.12,-0.0537 -0.12,-0.12 0,-0.0663 0.05372,-0.12 0.12,-0.12 0.06627,0 0.12,0.0537 0.12,0.12z" fill="#000000" stroke="#00000000" stroke-width="0.04233333"/>
  <path d="m0.23648,4.42652c0,0.0663 -0.05373,0.11999 -0.12,0.11999 -0.06627,0 -0.12,-0.0537 -0.12,-0.11999 0,-0.0663 0.05373,-0.12001 0.12,-0.12001 0.06628,0 0.12,0.0537 0.12,0.12001z" fill="#000000" stroke="#00000000" stroke-width="0.04233333"/>
  <path d="m5.00945,0.60814c0,0.0663 -0.05373,0.12 -0.12,0.12 -0.06627,0 -0.12,-0.0537 -0.12,-0.12 0,-0.0663 0.05373,-0.12 0.12,-0.12 0.06627,0 0.12,0.0537 0.12,0.12z" fill="#000000" stroke="#00000000" stroke-width="0.04233333"/>
  <path d="m4.53215,1.08543c0,0.0663 -0.05372,0.12001 -0.12,0.12001 -0.06628,0 -0.12,-0.0537 -0.12,-0.12001 0,-0.0663 0.05373,-0.11999 0.12,-0.11999 0.06627,0 0.12,0.0537 0.12,0.11999z" fill="#000000" stroke="#00000000" stroke-width="0.04233333"/>
  <path d="m4.05486,1.56273c0,0.0663 -0.05373,0.12 -0.12,0.12 -0.06627,0 -0.12,-0.0537 -0.12,-0.12 0,-0.0663 0.05373,-0.12 0.12,-0.12 0.06628,0 0.12,0.0537 0.12,0.12z" fill="#000000" stroke="#00000000" stroke-width="0.04233333"/>
  <path d="m3.57756,2.04003c0,0.0663 -0.05373,0.12 -0.12,0.12 -0.06627,0 -0.12,-0.0537 -0.12,-0.12 0,-0.0663 0.05373,-0.12 0.12,-0.12 0.06627,0 0.12,0.0537 0.12,0.12z" fill="#000000" stroke="#00000000" stroke-width="0.04233333"/>
  <path d="m3.10027,2.51733c0,0.0663 -0.05373,0.12 -0.12,0.12 -0.06628,0 -0.12,-0.0537 -0.12,-0.12 0,-0.0663 0.05372,-0.12 0.12,-0.12 0.06627,0 0.12,0.0537 0.12,0.12z" fill="#000000" stroke="#00000000" stroke-width="0.04233333"/>
  <path d="m2.62296,2.99462c0,0.0663 -0.05373,0.12 -0.12,0.12 -0.06627,0 -0.12,-0.0537 -0.12,-0.12 0,-0.0663 0.05372,-0.12 0.12,-0.12 0.06628,0 0.12,0.0537 0.12,0.12z" fill="#000000" stroke="#00000000" stroke-width="0.04233333"/>
  <path d="m2.14567,3.47192c0,0.0663 -0.05373,0.12 -0.12,0.12 -0.06628,0 -0.12,-0.0537 -0.12,-0.12 0,-0.0663 0.05373,-0.12 0.12,-0.12 0.06627,0 0.12,0.0537 0.12,0.12z" fill="#000000" stroke="#00000000" stroke-width="0.04233333"/>
  <path d="m1.66837,3.94922c0,0.0663 -0.05372,0.12 -0.12,0.12 -0.06628,0 -0.12,-0.0537 -0.12,-0.12 0,-0.0663 0.05373,-0.12 0.12,-0.12 0.06627,0 0.12,0.0537 0.12,0.12z" fill="#000000" stroke="#00000000" stroke-width="0.04233333"/>
  <path d="m1.19108,4.42652c0,0.0663 -0.05373,0.11999 -0.12,0.11999 -0.06627,0 -0.12,-0.0537 -0.12,-0.11999 0,-0.0663 0.05373,-0.12001 0.12,-0.12001 0.06627,0 0.12,0.0537 0.12,0.12001z" fill="#000000" stroke="#00000000" stroke-width="0.04233333"/>
  <path d="m0.71378,4.90381c0,0.0663 -0.05373,0.12 -0.12,0.12 -0.06628,0 -0.12,-0.0537 -0.12,-0.12 0,-0.0663 0.05372,-0.12 0.12,-0.12 0.06627,0 0.12,0.0537 0.12,0.12z" fill="#000000" stroke="#00000000" stroke-width="0.04233333"/>
  <path d="m5.00945,1.56273c0,0.0663 -0.05373,0.12 -0.12,0.12 -0.06627,0 -0.12,-0.0537 -0.12,-0.12 0,-0.0663 0.05373,-0.12 0.12,-0.12 0.06627,0 0.12,0.0537 0.12,0.12z" fill="#000000" stroke="#00000000" stroke-width="0.04233333"/>
  <path d="m4.53215,2.04003c0,0.0663 -0.05372,0.12 -0.12,0.12 -0.06628,0 -0.12,-0.0537 -0.12,-0.12 0,-0.0663 0.05373,-0.12 0.12,-0.12 0.06627,0 0.12,0.0537 0.12,0.12z" fill="#000000" stroke="#00000000" stroke-width="0.04233333"/>
  <path d="m4.05486,2.51733c0,0.0663 -0.05373,0.12 -0.12,0.12 -0.06627,0 -0.12,-0.0537 -0.12,-0.12 0,-0.0663 0.05373,-0.12 0.12,-0.12 0.06628,0 0.12,0.0537 0.12,0.12z" fill="#000000" stroke="#00000000" stroke-width="0.04233333"/>
  <path d="m3.57756,2.99462c0,0.0663 -0.05373,0.12 -0.12,0.12 -0.06627,0 -0.12,-0.0537 -0.12,-0.12 0,-0.0663 0.05373,-0.12 0.12,-0.12 0.06627,0 0.12,0.0537 0.12,0.12z" fill="#000000" stroke="#00000000" stroke-width="0.04233333"/>
  <path d="m3.10027,3.47192c0,0.0663 -0.05373,0.12 -0.12,0.12 -0.06628,0 -0.12,-0.0537 -0.12,-0.12 0,-0.0663 0.05372,-0.12 0.12,-0.12 0.06627,0 0.12,0.0537 0.12,0.12z" fill="#000000" stroke="#00000000" stroke-width="0.04233333"/>
  <path d="m2.62296,3.94922c0,0.0663 -0.05373,0.12 -0.12,0.12 -0.06627,0 -0.12,-0.0537 -0.12,-0.12 0,-0.0663 0.05372,-0.12 0.12,-0.12 0.06628,0 0.12,0.0537 0.12,0.12z" fill="#000000" stroke="#00000000" stroke-width="0.04233333"/>
  <path d="m2.14567,4.42652c0,0.0663 -0.05373,0.11999 -0.12,0.11999 -0.06628,0 -0.12,-0.0537 -0.12,-0.11999 0,-0.0663 0.05373,-0.12001 0.12,-0.12001 0.06627,0 0.12,0.0537 0.12,0.12001z" fill="#000000" stroke="#00000000" stroke-width="0.04233333"/>
  <path d="m1.66837,4.90381c0,0.0663 -0.05372,0.12 -0.12,0.12 -0.06627,0 -0.12,-0.0537 -0.12,-0.12 0,-0.0663 0.05373,-0.12 0.12,-0.12 0.06628,0 0.12,0.0537 0.12,0.12z" fill="#000000" stroke="#00000000" stroke-width="0.04233333"/>
  <path d="m5.00945,2.51733c0,0.0663 -0.05373,0.12 -0.12,0.12 -0.06627,0 -0.12,-0.0537 -0.12,-0.12 0,-0.0663 0.05373,-0.12 0.12,-0.12 0.06627,0 0.12,0.0537 0.12,0.12z" fill="#000000" stroke="#00000000" stroke-width="0.04233333"/>
  <path d="m4.53215,2.99462c0,0.0663 -0.05372,0.12 -0.12,0.12 -0.06628,0 -0.12,-0.0537 -0.12,-0.12 0,-0.0663 0.05373,-0.12 0.12,-0.12 0.06627,0 0.12,0.0537 0.12,0.12z" fill="#000000" stroke="#00000000" stroke-width="0.04233333"/>
  <path d="m4.05486,3.47192c0,0.0663 -0.05373,0.12 -0.12,0.12 -0.06627,0 -0.12,-0.0537 -0.12,-0.12 0,-0.0663 0.05373,-0.12 0.12,-0.12 0.06628,0 0.12,0.0537 0.12,0.12z" fill="#000000" stroke="#00000000" stroke-width="0.04233333"/>
  <path d="m3.57756,3.94922c0,0.0663 -0.05373,0.12 -0.12,0.12 -0.06627,0 -0.12,-0.0537 -0.12,-0.12 0,-0.0663 0.05373,-0.12 0.12,-0.12 0.06627,0 0.12,0.0537 0.12,0.12z" fill="#000000" stroke="#00000000" stroke-width="0.04233333"/>
  <path d="m3.10027,4.42652c0,0.0663 -0.05373,0.11999 -0.12,0.11999 -0.06628,0 -0.12,-0.0537 -0.12,-0.11999 0,-0.0663 0.05372,-0.12001 0.12,-0.12001 0.06627,0 0.12,0.0537 0.12,0.12001z" fill="#000000" stroke="#00000000" stroke-width="0.04233333"/>
  <path d="m2.62296,4.90381c0,0.0663 -0.05373,0.12 -0.12,0.12 -0.06627,0 -0.12,-0.0537 -0.12,-0.12 0,-0.0663 0.05372,-0.12 0.12,-0.12 0.06627,0 0.12,0.0537 0.12,0.12z" fill="#000000" stroke="#00000000" stroke-width="0.04233333"/>
  <path d="m5.00945,3.47192c0,0.0663 -0.05373,0.12 -0.12,0.12 -0.06627,0 -0.12,-0.0537 -0.12,-0.12 0,-0.0663 0.05373,-0.12 0.12,-0.12 0.06627,0 0.12,0.0537 0.12,0.12z" fill="#000000" stroke="#00000000" stroke-width="0.04233333"/>
  <path d="m4.53215,3.94922c0,0.0663 -0.05372,0.12 -0.12,0.12 -0.06628,0 -0.12,-0.0537 -0.12,-0.12 0,-0.0663 0.05373,-0.12 0.12,-0.12 0.06627,0 0.12,0.0537 0.12,0.12z" fill="#000000" stroke="#00000000" stroke-width="0.04233333"/>
  <path d="m4.05486,4.42652c0,0.0663 -0.05373,0.11999 -0.12,0.11999 -0.06627,0 -0.12,-0.0537 -0.12,-0.11999 0,-0.0663 0.05373,-0.12001 0.12,-0.12001 0.06628,0 0.12,0.0537 0.12,0.12001z" fill="#000000" stroke="#00000000" stroke-width="0.04233333"/>
  <path d="m3.57756,4.90381c0,0.0663 -0.05373,0.12 -0.12,0.12 -0.06627,0 -0.12,-0.0537 -0.12,-0.12 0,-0.0663 0.05373,-0.12 0.12,-0.12 0.06627,0 0.12,0.0537 0.12,0.12z" fill="#000000" stroke="#00000000" stroke-width="0.04233333"/>
  <path d="m5.00945,4.42652c0,0.0663 -0.05373,0.11999 -0.12,0.11999 -0.06627,0 -0.12,-0.0537 -0.12,-0.11999 0,-0.0663 0.05373,-0.12001 0.12,-0.12001 0.06627,0 0.12,0.0537 0.12,0.12001z" fill="#000000" stroke="#00000000" stroke-width="0.04233333"/>
  <path d="m4.53215,4.90381c0,0.0663 -0.05372,0.12 -0.12,0.12 -0.06628,0 -0.12,-0.0537 -0.12,-0.12 0,-0.0663 0.05373,-0.12 0.12,-0.12 0.06627,0 0.12,0.0537 0.12,0.12z" fill="#000000" stroke="#00000000" stroke-width="0.04233333"/>
</svg>
