<?xml version="1.0" ?>
<svg xmlns="http://www.w3.org/2000/svg" width="125.677025" height="125.67699999999999" viewBox="0 0 5.027081 5.02708">
  <path d="m1.0524,0.46807c0,0.0828 -0.06716,0.15 -0.15,0.15 -0.08285,0 -0.15,-0.0672 -0.15,-0.15 0,-0.0828 0.06715,-0.15 0.15,-0.15 0.08284,0 0.15,0.0672 0.15,0.15z" fill="#d15c00" stroke-width="0.04233333" stroke="#00000000"/>
  <path d="m2.55239,0.46807c0,0.0828 -0.06716,0.15 -0.15,0.15 -0.08284,0 -0.15,-0.0672 -0.15,-0.15 0,-0.0828 0.06716,-0.15 0.15,-0.15 0.08284,0 0.15,0.0672 0.15,0.15z" fill="#d15c00" stroke-width="0.04233333" stroke="#00000000"/>
  <path d="m1.6824,0.34807c0,0.0829 -0.06716,0.15 -0.15,0.15 -0.08285,0 -0.15,-0.0671 -0.15,-0.15 0,-0.0828 0.06715,-0.15 0.15,-0.15 0.08284,0 0.15,0.0672 0.15,0.15z" fill="#d15c00" stroke-width="0.04233333" stroke="#00000000"/>
  <path d="m4.05239,0.46807c0,0.0828 -0.06715,0.15 -0.15,0.15 -0.08284,0 -0.15,-0.0672 -0.15,-0.15 0,-0.0828 0.06716,-0.15 0.15,-0.15 0.08284,0 0.15,0.0672 0.15,0.15z" fill="#d15c00" stroke-width="0.04233333" stroke="#00000000"/>
  <path d="m3.1824,0.34807c0,0.0829 -0.06716,0.15 -0.15,0.15 -0.08284,0 -0.15,-0.0671 -0.15,-0.15 0,-0.0828 0.06716,-0.15 0.15,-0.15 0.08284,0 0.15,0.0672 0.15,0.15z" fill="#d15c00" stroke-width="0.04233333" stroke="#00000000"/>
  <path d="m4.6824,0.34807c0,0.0829 -0.06716,0.15 -0.15,0.15 -0.08284,0 -0.15,-0.0671 -0.15,-0.15 0,-0.0828 0.06716,-0.15 0.15,-0.15 0.08284,0 0.15,0.0672 0.15,0.15z" fill="#d15c00" stroke-width="0.04233333" stroke="#00000000"/>
  <path d="m1.0524,1.96807c0,0.0828 -0.06716,0.15 -0.15,0.15 -0.08285,0 -0.15,-0.0672 -0.15,-0.15 0,-0.0828 0.06715,-0.15 0.15,-0.15 0.08284,0 0.15,0.0672 0.15,0.15z" fill="#d15c00" stroke-width="0.04233333" stroke="#00000000"/>
  <path d="m1.0974,1.23307c0,0.0828 -0.06716,0.15 -0.15,0.15 -0.08285,0 -0.15,-0.0672 -0.15,-0.15 0,-0.0828 0.06716,-0.15 0.15,-0.15 0.08284,0 0.15,0.0672 0.15,0.15z" fill="#d15c00" stroke-width="0.04233333" stroke="#00000000"/>
  <path d="m0.43739,1.05307c0,0.0829 -0.06716,0.15 -0.15,0.15 -0.08284,0 -0.15,-0.0671 -0.15,-0.15 0,-0.0828 0.06716,-0.15 0.15,-0.15 0.08284,0 0.15,0.0672 0.15,0.15z" fill="#d15c00" stroke-width="0.04233333" stroke="#00000000"/>
  <path d="m2.55239,1.96807c0,0.0828 -0.06716,0.15 -0.15,0.15 -0.08284,0 -0.15,-0.0672 -0.15,-0.15 0,-0.0828 0.06716,-0.15 0.15,-0.15 0.08284,0 0.15,0.0672 0.15,0.15z" fill="#d15c00" stroke-width="0.04233333" stroke="#00000000"/>
  <path d="m1.6824,1.84807c0,0.0828 -0.06716,0.15 -0.15,0.15 -0.08285,0 -0.15,-0.0672 -0.15,-0.15 0,-0.0828 0.06715,-0.15 0.15,-0.15 0.08284,0 0.15,0.0672 0.15,0.15z" fill="#d15c00" stroke-width="0.04233333" stroke="#00000000"/>
  <path d="m2.59739,1.23307c0,0.0828 -0.06716,0.15 -0.15,0.15 -0.08284,0 -0.15,-0.0672 -0.15,-0.15 0,-0.0828 0.06716,-0.15 0.15,-0.15 0.08284,0 0.15,0.0672 0.15,0.15z" fill="#d15c00" stroke-width="0.04233333" stroke="#00000000"/>
  <path d="m1.93739,1.05307c0,0.0829 -0.06716,0.15 -0.15,0.15 -0.08284,0 -0.15,-0.0671 -0.15,-0.15 0,-0.0828 0.06716,-0.15 0.15,-0.15 0.08284,0 0.15,0.0672 0.15,0.15z" fill="#d15c00" stroke-width="0.04233333" stroke="#00000000"/>
  <path d="m4.05239,1.96807c0,0.0828 -0.06715,0.15 -0.15,0.15 -0.08284,0 -0.15,-0.0672 -0.15,-0.15 0,-0.0828 0.06716,-0.15 0.15,-0.15 0.08284,0 0.15,0.0672 0.15,0.15z" fill="#d15c00" stroke-width="0.04233333" stroke="#00000000"/>
  <path d="m3.1824,1.84807c0,0.0828 -0.06716,0.15 -0.15,0.15 -0.08284,0 -0.15,-0.0672 -0.15,-0.15 0,-0.0828 0.06716,-0.15 0.15,-0.15 0.08284,0 0.15,0.0672 0.15,0.15z" fill="#d15c00" stroke-width="0.04233333" stroke="#00000000"/>
  <path d="m4.09739,1.23307c0,0.0828 -0.06715,0.15 -0.15,0.15 -0.08284,0 -0.15,-0.0672 -0.15,-0.15 0,-0.0828 0.06716,-0.15 0.15,-0.15 0.08284,0 0.15,0.0672 0.15,0.15z" fill="#d15c00" stroke-width="0.04233333" stroke="#00000000"/>
  <path d="m3.43739,1.05307c0,0.0829 -0.06715,0.15 -0.15,0.15 -0.08284,0 -0.15,-0.0671 -0.15,-0.15 0,-0.0828 0.06716,-0.15 0.15,-0.15 0.08285,0 0.15,0.0672 0.15,0.15z" fill="#d15c00" stroke-width="0.04233333" stroke="#00000000"/>
  <path d="m4.6824,1.84807c0,0.0828 -0.06716,0.15 -0.15,0.15 -0.08284,0 -0.15,-0.0672 -0.15,-0.15 0,-0.0828 0.06716,-0.15 0.15,-0.15 0.08284,0 0.15,0.0672 0.15,0.15z" fill="#d15c00" stroke-width="0.04233333" stroke="#00000000"/>
  <path d="m4.93739,1.05307c0,0.0829 -0.06715,0.15 -0.15,0.15 -0.08284,0 -0.15,-0.0671 -0.15,-0.15 0,-0.0828 0.06716,-0.15 0.15,-0.15 0.08284,0 0.15,0.0672 0.15,0.15z" fill="#d15c00" stroke-width="0.04233333" stroke="#00000000"/>
  <path d="m1.0524,3.46807c0,0.0828 -0.06716,0.15 -0.15,0.15 -0.08285,0 -0.15,-0.0672 -0.15,-0.15 0,-0.0828 0.06715,-0.15 0.15,-0.15 0.08284,0 0.15,0.0672 0.15,0.15z" fill="#d15c00" stroke-width="0.04233333" stroke="#00000000"/>
  <path d="m1.0974,2.73307c0,0.0828 -0.06716,0.15 -0.15,0.15 -0.08285,0 -0.15,-0.0672 -0.15,-0.15 0,-0.0828 0.06716,-0.15 0.15,-0.15 0.08284,0 0.15,0.0672 0.15,0.15z" fill="#d15c00" stroke-width="0.04233333" stroke="#00000000"/>
  <path d="m0.43739,2.55307c0,0.0829 -0.06716,0.15 -0.15,0.15 -0.08284,0 -0.15,-0.0671 -0.15,-0.15 0,-0.0828 0.06716,-0.15 0.15,-0.15 0.08284,0 0.15,0.0672 0.15,0.15z" fill="#d15c00" stroke-width="0.04233333" stroke="#00000000"/>
  <path d="m2.55239,3.46807c0,0.0828 -0.06716,0.15 -0.15,0.15 -0.08284,0 -0.15,-0.0672 -0.15,-0.15 0,-0.0828 0.06716,-0.15 0.15,-0.15 0.08284,0 0.15,0.0672 0.15,0.15z" fill="#d15c00" stroke-width="0.04233333" stroke="#00000000"/>
  <path d="m1.6824,3.34807c0,0.0828 -0.06716,0.15 -0.15,0.15 -0.08285,0 -0.15,-0.0672 -0.15,-0.15 0,-0.0828 0.06715,-0.15 0.15,-0.15 0.08284,0 0.15,0.0672 0.15,0.15z" fill="#d15c00" stroke-width="0.04233333" stroke="#00000000"/>
  <path d="m2.59739,2.73307c0,0.0828 -0.06716,0.15 -0.15,0.15 -0.08284,0 -0.15,-0.0672 -0.15,-0.15 0,-0.0828 0.06716,-0.15 0.15,-0.15 0.08284,0 0.15,0.0672 0.15,0.15z" fill="#d15c00" stroke-width="0.04233333" stroke="#00000000"/>
  <path d="m1.93739,2.55307c0,0.0829 -0.06716,0.15 -0.15,0.15 -0.08284,0 -0.15,-0.0671 -0.15,-0.15 0,-0.0828 0.06716,-0.15 0.15,-0.15 0.08284,0 0.15,0.0672 0.15,0.15z" fill="#d15c00" stroke-width="0.04233333" stroke="#00000000"/>
  <path d="m4.05239,3.46807c0,0.0828 -0.06715,0.15 -0.15,0.15 -0.08284,0 -0.15,-0.0672 -0.15,-0.15 0,-0.0828 0.06716,-0.15 0.15,-0.15 0.08284,0 0.15,0.0672 0.15,0.15z" fill="#d15c00" stroke-width="0.04233333" stroke="#00000000"/>
  <path d="m3.1824,3.34807c0,0.0828 -0.06716,0.15 -0.15,0.15 -0.08284,0 -0.15,-0.0672 -0.15,-0.15 0,-0.0828 0.06716,-0.15 0.15,-0.15 0.08284,0 0.15,0.0672 0.15,0.15z" fill="#d15c00" stroke-width="0.04233333" stroke="#00000000"/>
  <path d="m4.09739,2.73307c0,0.0828 -0.06715,0.15 -0.15,0.15 -0.08284,0 -0.15,-0.0672 -0.15,-0.15 0,-0.0828 0.06716,-0.15 0.15,-0.15 0.08284,0 0.15,0.0672 0.15,0.15z" fill="#d15c00" stroke-width="0.04233333" stroke="#00000000"/>
  <path d="m3.43739,2.55307c0,0.0829 -0.06715,0.15 -0.15,0.15 -0.08284,0 -0.15,-0.0671 -0.15,-0.15 0,-0.0828 0.06716,-0.15 0.15,-0.15 0.08285,0 0.15,0.0672 0.15,0.15z" fill="#d15c00" stroke-width="0.04233333" stroke="#00000000"/>
  <path d="m4.6824,3.34807c0,0.0828 -0.06716,0.15 -0.15,0.15 -0.08284,0 -0.15,-0.0672 -0.15,-0.15 0,-0.0828 0.06716,-0.15 0.15,-0.15 0.08284,0 0.15,0.0672 0.15,0.15z" fill="#d15c00" stroke-width="0.04233333" stroke="#00000000"/>
  <path d="m4.93739,2.55307c0,0.0829 -0.06715,0.15 -0.15,0.15 -0.08284,0 -0.15,-0.0671 -0.15,-0.15 0,-0.0828 0.06716,-0.15 0.15,-0.15 0.08284,0 0.15,0.0672 0.15,0.15z" fill="#d15c00" stroke-width="0.04233333" stroke="#00000000"/>
  <path d="m1.0974,4.23307c0,0.0828 -0.06716,0.15 -0.15,0.15 -0.08285,0 -0.15,-0.0672 -0.15,-0.15 0,-0.0828 0.06716,-0.15 0.15,-0.15 0.08284,0 0.15,0.0672 0.15,0.15z" fill="#d15c00" stroke-width="0.04233333" stroke="#00000000"/>
  <path d="m0.43739,4.05307c0,0.0828 -0.06716,0.15 -0.15,0.15 -0.08284,0 -0.15,-0.0672 -0.15,-0.15 0,-0.0828 0.06716,-0.15 0.15,-0.15 0.08284,0 0.15,0.0672 0.15,0.15z" fill="#d15c00" stroke-width="0.04233333" stroke="#00000000"/>
  <path d="m2.59739,4.23307c0,0.0828 -0.06716,0.15 -0.15,0.15 -0.08284,0 -0.15,-0.0672 -0.15,-0.15 0,-0.0828 0.06716,-0.15 0.15,-0.15 0.08284,0 0.15,0.0672 0.15,0.15z" fill="#d15c00" stroke-width="0.04233333" stroke="#00000000"/>
  <path d="m1.93739,4.05307c0,0.0828 -0.06716,0.15 -0.15,0.15 -0.08284,0 -0.15,-0.0672 -0.15,-0.15 0,-0.0828 0.06716,-0.15 0.15,-0.15 0.08284,0 0.15,0.0672 0.15,0.15z" fill="#d15c00" stroke-width="0.04233333" stroke="#00000000"/>
  <path d="m4.09739,4.23307c0,0.0828 -0.06715,0.15 -0.15,0.15 -0.08284,0 -0.15,-0.0672 -0.15,-0.15 0,-0.0828 0.06716,-0.15 0.15,-0.15 0.08284,0 0.15,0.0672 0.15,0.15z" fill="#d15c00" stroke-width="0.04233333" stroke="#00000000"/>
  <path d="m3.43739,4.05307c0,0.0828 -0.06715,0.15 -0.15,0.15 -0.08284,0 -0.15,-0.0672 -0.15,-0.15 0,-0.0828 0.06716,-0.15 0.15,-0.15 0.08285,0 0.15,0.0672 0.15,0.15z" fill="#d15c00" stroke-width="0.04233333" stroke="#00000000"/>
  <path d="m4.93739,4.05307c0,0.0828 -0.06715,0.15 -0.15,0.15 -0.08284,0 -0.15,-0.0672 -0.15,-0.15 0,-0.0828 0.06716,-0.15 0.15,-0.15 0.08284,0 0.15,0.0672 0.15,0.15z" fill="#d15c00" stroke-width="0.04233333" stroke="#00000000"/>
  <path d="m1.08006,4.8225c0,0.0828 -0.06716,0.15 -0.15,0.15 -0.08285,0 -0.15,-0.0672 -0.15,-0.15 0,-0.0828 0.06715,-0.15 0.15,-0.15 0.08284,0 0.15,0.0672 0.15,0.15z" fill="#d15c00" stroke-width="0.04233333" stroke="#00000000"/>
  <path d="m2.58006,4.8225c0,0.0828 -0.06716,0.15 -0.15,0.15 -0.08284,0 -0.15,-0.0672 -0.15,-0.15 0,-0.0828 0.06716,-0.15 0.15,-0.15 0.08284,0 0.15,0.0672 0.15,0.15z" fill="#d15c00" stroke-width="0.04233333" stroke="#00000000"/>
  <path d="m1.71006,4.7025c0,0.0829 -0.06716,0.15 -0.15,0.15 -0.08285,0 -0.15,-0.0671 -0.15,-0.15 0,-0.0828 0.06715,-0.15 0.15,-0.15 0.08284,0 0.15,0.0672 0.15,0.15z" fill="#d15c00" stroke-width="0.04233333" stroke="#00000000"/>
  <path d="m4.08006,4.8225c0,0.0828 -0.06715,0.15 -0.15,0.15 -0.08284,0 -0.15,-0.0672 -0.15,-0.15 0,-0.0828 0.06716,-0.15 0.15,-0.15 0.08284,0 0.15,0.0672 0.15,0.15z" fill="#d15c00" stroke-width="0.04233333" stroke="#00000000"/>
  <path d="m3.21005,4.7025c0,0.0829 -0.06716,0.15 -0.15,0.15 -0.08284,0 -0.15,-0.0671 -0.15,-0.15 0,-0.0828 0.06716,-0.15 0.15,-0.15 0.08284,0 0.15,0.0672 0.15,0.15z" fill="#d15c00" stroke-width="0.04233333" stroke="#00000000"/>
  <path d="m4.71005,4.7025c0,0.0829 -0.06716,0.15 -0.15,0.15 -0.08284,0 -0.15,-0.0671 -0.15,-0.15 0,-0.0828 0.06716,-0.15 0.15,-0.15 0.08284,0 0.15,0.0672 0.15,0.15z" fill="#d15c00" stroke-width="0.04233333" stroke="#00000000"/>
</svg>
