<?xml version="1.0" ?>
<svg xmlns="http://www.w3.org/2000/svg" width="128" height="128" viewBox="0 0 5.3 5.3">
  <path d="m8.77824,7.66866c-0.66339,1.2109 -2.18282,1.65472 -3.39371,0.99133 -1.21088,-0.66339 -1.65472,-2.18281 -0.99132,-3.3937 0.66339,-1.21088 2.18281,-1.65472 3.3937,-0.99133 1.21089,0.6634 1.65472,2.18282 0.99133,3.3937z" fill="#00000000" stroke-linejoin="miter" stroke-linecap="butt" stroke-width="0.34999081" stroke="#ec008c"/>
  <path d="m1.22953,-0.03909c-0.66339,1.21088 -2.18282,1.65471 -3.39371,0.99132 -1.21088,-0.66339 -1.65472,-2.18281 -0.99132,-3.3937 0.66339,-1.21089 2.18281,-1.65472 3.3937,-0.99132 1.21089,0.66339 1.65473,2.18281 0.99133,3.3937z" fill="#00000000" stroke-linejoin="miter" stroke-linecap="butt" stroke-width="0.34999081" stroke="#ec008c"/>
  <path d="m-0.66711,-2.98788 l1.30584,-2.38353 0.82421,0.45155 -1.30584,2.38353z" fill="#ffffff" stroke-width="0.35277778" stroke="#00000000"/>
  <path d="m-4.44781,1.35034 l1.82655,-2.01237 1.20389,1.09263 -1.8266,2.01246z" fill="#ffffff" stroke-width="0.35277778" stroke="#00000000"/>
  <path d="m0.72925,0.58073 l3.59232,3.75874" fill="#00000000" stroke-linejoin="miter" stroke-linecap="butt" stroke-width="0.34999081" stroke="#ec008c"/>
</svg>
