<?xml version="1.0" ?>
<svg xmlns="http://www.w3.org/2000/svg" width="128" height="128" viewBox="0 0 5.027081 5.02708">
  <path d="m1.21562,0.26307c0,0.0828 -0.06715,0.15 -0.15,0.15 -0.08284,0 -0.15,-0.0672 -0.15,-0.15 0,-0.0828 0.06716,-0.15 0.15,-0.15 0.08284,0 0.15,0.0672 0.15,0.15z" fill="#000000" stroke-width="0.04233333" stroke="#00000000"/>
  <path d="m4.21562,0.26307c0,0.0828 -0.06715,0.15 -0.15,0.15 -0.08284,0 -0.15,-0.0672 -0.15,-0.15 0,-0.0828 0.06716,-0.15 0.15,-0.15 0.08285,0 0.15,0.0672 0.15,0.15z" fill="#000000" stroke-width="0.04233333" stroke="#00000000"/>
  <path d="m1.05062,0.99807c0,0.0828 -0.06716,0.15 -0.15,0.15 -0.08285,0 -0.15,-0.0672 -0.15,-0.15 0,-0.0828 0.06715,-0.15 0.15,-0.15 0.08284,0 0.15,0.0672 0.15,0.15z" fill="#000000" stroke-width="0.04233333" stroke="#00000000"/>
  <path d="m1.84562,0.69807c0,0.0828 -0.06716,0.15 -0.15,0.15 -0.08284,0 -0.15,-0.0672 -0.15,-0.15 0,-0.0828 0.06716,-0.15 0.15,-0.15 0.08284,0 0.15,0.0672 0.15,0.15z" fill="#000000" stroke-width="0.04233333" stroke="#00000000"/>
  <path d="m1.21562,1.76307c0,0.0828 -0.06715,0.15 -0.15,0.15 -0.08284,0 -0.15,-0.0672 -0.15,-0.15 0,-0.0828 0.06716,-0.15 0.15,-0.15 0.08284,0 0.15,0.0672 0.15,0.15z" fill="#000000" stroke-width="0.04233333" stroke="#00000000"/>
  <path d="m2.04063,1.41807c0,0.0829 -0.06716,0.15 -0.15,0.15 -0.08284,0 -0.15,-0.0671 -0.15,-0.15 0,-0.0828 0.06715,-0.15 0.15,-0.15 0.08284,0 0.15,0.0672 0.15,0.15z" fill="#000000" stroke-width="0.04233333" stroke="#00000000"/>
  <path d="m0.43562,0.72807c0,0.0828 -0.06716,0.15 -0.15,0.15 -0.08284,0 -0.15,-0.0672 -0.15,-0.15 0,-0.0828 0.06716,-0.15 0.15,-0.15 0.08284,0 0.15,0.0672 0.15,0.15z" fill="#000000" stroke-width="0.04233333" stroke="#00000000"/>
  <path d="m4.05062,0.99807c0,0.0828 -0.06715,0.15 -0.15,0.15 -0.08284,0 -0.15,-0.0672 -0.15,-0.15 0,-0.0828 0.06716,-0.15 0.15,-0.15 0.08284,0 0.15,0.0672 0.15,0.15z" fill="#000000" stroke-width="0.04233333" stroke="#00000000"/>
  <path d="m4.84562,0.69807c0,0.0828 -0.06715,0.15 -0.15,0.15 -0.08284,0 -0.15,-0.0672 -0.15,-0.15 0,-0.0828 0.06716,-0.15 0.15,-0.15 0.08284,0 0.15,0.0672 0.15,0.15z" fill="#000000" stroke-width="0.04233333" stroke="#00000000"/>
  <path d="m4.21562,1.76307c0,0.0828 -0.06715,0.15 -0.15,0.15 -0.08284,0 -0.15,-0.0672 -0.15,-0.15 0,-0.0828 0.06716,-0.15 0.15,-0.15 0.08285,0 0.15,0.0672 0.15,0.15z" fill="#000000" stroke-width="0.04233333" stroke="#00000000"/>
  <path d="m3.43562,0.72807c0,0.0828 -0.06715,0.15 -0.15,0.15 -0.08284,0 -0.15,-0.0672 -0.15,-0.15 0,-0.0828 0.06716,-0.15 0.15,-0.15 0.08285,0 0.15,0.0672 0.15,0.15z" fill="#000000" stroke-width="0.04233333" stroke="#00000000"/>
  <path d="m3.10562,1.62807c0,0.0828 -0.06716,0.15 -0.15,0.15 -0.08285,0 -0.15,-0.0672 -0.15,-0.15 0,-0.0828 0.06715,-0.15 0.15,-0.15 0.08284,0 0.15,0.0672 0.15,0.15z" fill="#000000" stroke-width="0.04233333" stroke="#00000000"/>
  <path d="m2.59562,0.74307c0,0.0828 -0.06716,0.15 -0.15,0.15 -0.08284,0 -0.15,-0.0672 -0.15,-0.15 0,-0.0828 0.06716,-0.15 0.15,-0.15 0.08284,0 0.15,0.0672 0.15,0.15z" fill="#000000" stroke-width="0.04233333" stroke="#00000000"/>
  <path d="m1.05062,2.49807c0,0.0828 -0.06716,0.15 -0.15,0.15 -0.08285,0 -0.15,-0.0672 -0.15,-0.15 0,-0.0828 0.06715,-0.15 0.15,-0.15 0.08284,0 0.15,0.0672 0.15,0.15z" fill="#000000" stroke-width="0.04233333" stroke="#00000000"/>
  <path d="m1.84562,2.19807c0,0.0828 -0.06716,0.15 -0.15,0.15 -0.08284,0 -0.15,-0.0672 -0.15,-0.15 0,-0.0828 0.06716,-0.15 0.15,-0.15 0.08284,0 0.15,0.0672 0.15,0.15z" fill="#000000" stroke-width="0.04233333" stroke="#00000000"/>
  <path d="m1.21562,3.26307c0,0.0828 -0.06715,0.15 -0.15,0.15 -0.08284,0 -0.15,-0.0672 -0.15,-0.15 0,-0.0828 0.06716,-0.15 0.15,-0.15 0.08284,0 0.15,0.0672 0.15,0.15z" fill="#000000" stroke-width="0.04233333" stroke="#00000000"/>
  <path d="m2.04063,2.91807c0,0.0829 -0.06716,0.15 -0.15,0.15 -0.08284,0 -0.15,-0.0671 -0.15,-0.15 0,-0.0828 0.06715,-0.15 0.15,-0.15 0.08284,0 0.15,0.0672 0.15,0.15z" fill="#000000" stroke-width="0.04233333" stroke="#00000000"/>
  <path d="m0.43562,2.22807c0,0.0828 -0.06716,0.15 -0.15,0.15 -0.08284,0 -0.15,-0.0672 -0.15,-0.15 0,-0.0828 0.06716,-0.15 0.15,-0.15 0.08284,0 0.15,0.0672 0.15,0.15z" fill="#000000" stroke-width="0.04233333" stroke="#00000000"/>
  <path d="m4.05062,2.49807c0,0.0828 -0.06715,0.15 -0.15,0.15 -0.08284,0 -0.15,-0.0672 -0.15,-0.15 0,-0.0828 0.06716,-0.15 0.15,-0.15 0.08284,0 0.15,0.0672 0.15,0.15z" fill="#000000" stroke-width="0.04233333" stroke="#00000000"/>
  <path d="m4.84562,2.19807c0,0.0828 -0.06715,0.15 -0.15,0.15 -0.08284,0 -0.15,-0.0672 -0.15,-0.15 0,-0.0828 0.06716,-0.15 0.15,-0.15 0.08284,0 0.15,0.0672 0.15,0.15z" fill="#000000" stroke-width="0.04233333" stroke="#00000000"/>
  <path d="m4.21562,3.26307c0,0.0828 -0.06715,0.15 -0.15,0.15 -0.08284,0 -0.15,-0.0672 -0.15,-0.15 0,-0.0828 0.06716,-0.15 0.15,-0.15 0.08285,0 0.15,0.0672 0.15,0.15z" fill="#000000" stroke-width="0.04233333" stroke="#00000000"/>
  <path d="m3.43562,2.22807c0,0.0828 -0.06715,0.15 -0.15,0.15 -0.08284,0 -0.15,-0.0672 -0.15,-0.15 0,-0.0828 0.06716,-0.15 0.15,-0.15 0.08285,0 0.15,0.0672 0.15,0.15z" fill="#000000" stroke-width="0.04233333" stroke="#00000000"/>
  <path d="m3.10562,3.12807c0,0.0828 -0.06716,0.15 -0.15,0.15 -0.08285,0 -0.15,-0.0672 -0.15,-0.15 0,-0.0828 0.06715,-0.15 0.15,-0.15 0.08284,0 0.15,0.0672 0.15,0.15z" fill="#000000" stroke-width="0.04233333" stroke="#00000000"/>
  <path d="m2.59562,2.24307c0,0.0828 -0.06716,0.15 -0.15,0.15 -0.08284,0 -0.15,-0.0672 -0.15,-0.15 0,-0.0828 0.06716,-0.15 0.15,-0.15 0.08284,0 0.15,0.0672 0.15,0.15z" fill="#000000" stroke-width="0.04233333" stroke="#00000000"/>
  <path d="m1.05062,3.99807c0,0.0828 -0.06716,0.15 -0.15,0.15 -0.08285,0 -0.15,-0.0672 -0.15,-0.15 0,-0.0828 0.06715,-0.15 0.15,-0.15 0.08284,0 0.15,0.0672 0.15,0.15z" fill="#000000" stroke-width="0.04233333" stroke="#00000000"/>
  <path d="m1.84562,3.69807c0,0.0828 -0.06716,0.15 -0.15,0.15 -0.08284,0 -0.15,-0.0672 -0.15,-0.15 0,-0.0828 0.06716,-0.15 0.15,-0.15 0.08284,0 0.15,0.0672 0.15,0.15z" fill="#000000" stroke-width="0.04233333" stroke="#00000000"/>
  <path d="m1.21562,4.76307c0,0.0828 -0.06715,0.15 -0.15,0.15 -0.08284,0 -0.15,-0.0672 -0.15,-0.15 0,-0.0828 0.06716,-0.15 0.15,-0.15 0.08284,0 0.15,0.0672 0.15,0.15z" fill="#000000" stroke-width="0.04233333" stroke="#00000000"/>
  <path d="m2.04063,4.41807c0,0.0828 -0.06716,0.15 -0.15,0.15 -0.08284,0 -0.15,-0.0672 -0.15,-0.15 0,-0.0828 0.06715,-0.15 0.15,-0.15 0.08284,0 0.15,0.0672 0.15,0.15z" fill="#000000" stroke-width="0.04233333" stroke="#00000000"/>
  <path d="m0.43562,3.72807c0,0.0828 -0.06716,0.15 -0.15,0.15 -0.08284,0 -0.15,-0.0672 -0.15,-0.15 0,-0.0828 0.06716,-0.15 0.15,-0.15 0.08284,0 0.15,0.0672 0.15,0.15z" fill="#000000" stroke-width="0.04233333" stroke="#00000000"/>
  <path d="m4.05062,3.99807c0,0.0828 -0.06715,0.15 -0.15,0.15 -0.08284,0 -0.15,-0.0672 -0.15,-0.15 0,-0.0828 0.06716,-0.15 0.15,-0.15 0.08284,0 0.15,0.0672 0.15,0.15z" fill="#000000" stroke-width="0.04233333" stroke="#00000000"/>
  <path d="m4.84562,3.69807c0,0.0828 -0.06715,0.15 -0.15,0.15 -0.08284,0 -0.15,-0.0672 -0.15,-0.15 0,-0.0828 0.06716,-0.15 0.15,-0.15 0.08284,0 0.15,0.0672 0.15,0.15z" fill="#000000" stroke-width="0.04233333" stroke="#00000000"/>
  <path d="m4.21562,4.76307c0,0.0828 -0.06715,0.15 -0.15,0.15 -0.08284,0 -0.15,-0.0672 -0.15,-0.15 0,-0.0828 0.06716,-0.15 0.15,-0.15 0.08285,0 0.15,0.0672 0.15,0.15z" fill="#000000" stroke-width="0.04233333" stroke="#00000000"/>
  <path d="m3.43562,3.72807c0,0.0828 -0.06715,0.15 -0.15,0.15 -0.08284,0 -0.15,-0.0672 -0.15,-0.15 0,-0.0828 0.06716,-0.15 0.15,-0.15 0.08285,0 0.15,0.0672 0.15,0.15z" fill="#000000" stroke-width="0.04233333" stroke="#00000000"/>
  <path d="m3.10562,4.62807c0,0.0828 -0.06716,0.15 -0.15,0.15 -0.08285,0 -0.15,-0.0672 -0.15,-0.15 0,-0.0828 0.06715,-0.15 0.15,-0.15 0.08284,0 0.15,0.0672 0.15,0.15z" fill="#000000" stroke-width="0.04233333" stroke="#00000000"/>
  <path d="m2.59562,3.74307c0,0.0828 -0.06716,0.15 -0.15,0.15 -0.08284,0 -0.15,-0.0672 -0.15,-0.15 0,-0.0828 0.06716,-0.15 0.15,-0.15 0.08284,0 0.15,0.0672 0.15,0.15z" fill="#000000" stroke-width="0.04233333" stroke="#00000000"/>
</svg>
