<?xml version="1.0" ?>
<svg height="5.29299975.29299975.29299975.29299975.29299975.29299975.29299975.29299975.29299975.2929997" viewBox="0 0 5.292998 5.2929997" width="5.2929985.2929985.2929985.2929985.2929985.2929985.2929985.2929985.2929985.292998" xmlns="http://www.w3.org/2000/svg">
  <path d="m0.54136,4.48593 l4.24859,-3.65946" fill="#00000000" stroke="#d15c00" stroke-linecap="butt" stroke-linejoin="round" stroke-width="0.30886322"/>
  <path d="m1.99016,3.57106c0,0.21355 -0.17311,0.38666 -0.38665,0.38666 -0.21354,0 -0.38665,-0.17311 -0.38665,-0.38666 0,-0.21354 0.17311,-0.38664 0.38665,-0.38664 0.21354,0 0.38665,0.1731 0.38665,0.38664z" fill="#d15c00" stroke="#00000000" stroke-width="0.048426703"/>
  <path d="m4.11445,1.74134c0,0.21354 -0.17311,0.38665 -0.38666,0.38665 -0.21354,0 -0.38665,-0.17311 -0.38665,-0.38665 0,-0.21354 0.17311,-0.38665 0.38665,-0.38665 0.21354,0 0.38666,0.17311 0.38666,0.38665z" fill="#d15c00" stroke="#00000000" stroke-width="0.048426703"/>
</svg>
