<?xml version="1.0" ?>
<svg height="5.0229985.0229985.0229985.0229985.0229985.0229985.0229985.0229985.0229985.022998" viewBox="0 0 5.023002 5.022998" width="5.0230025.0230025.0230025.0230025.0230025.0230025.0230025.0230025.0230025.023002" xmlns="http://www.w3.org/2000/svg">
  <g>
    <path d="m0.87157,-0.86249l0,1.98171" fill="#00000000" stroke="#3dff17" stroke-linecap="butt" stroke-linejoin="miter" stroke-width="0.3044716"/>
    <path d="m0.87157,2.03385l0,1.98171" fill="#00000000" stroke="#3dff17" stroke-linecap="butt" stroke-linejoin="miter" stroke-width="0.3044716"/>
    <path d="m0.87157,4.9302l0,1.98171" fill="#00000000" stroke="#3dff17" stroke-linecap="butt" stroke-linejoin="miter" stroke-width="0.3044716"/>
    <path d="m3.45612,-0.86249l0,1.98171" fill="#00000000" stroke="#3dff17" stroke-linecap="butt" stroke-linejoin="miter" stroke-width="0.3044716"/>
    <path d="m3.45612,2.03385l0,1.98171" fill="#00000000" stroke="#3dff17" stroke-linecap="butt" stroke-linejoin="miter" stroke-width="0.3044716"/>
    <path d="m3.45612,4.9302l0,1.98171" fill="#00000000" stroke="#3dff17" stroke-linecap="butt" stroke-linejoin="miter" stroke-width="0.3044716"/>
    <path d="m2.16384,0.58568l0,1.98171" fill="#00000000" stroke="#3dff17" stroke-linecap="butt" stroke-linejoin="miter" stroke-width="0.3044716"/>
    <path d="M2.16384,3.48203L2.16384,5.46374" fill="#00000000" stroke="#3dff17" stroke-linecap="butt" stroke-linejoin="miter" stroke-width="0.3044716"/>
    <path d="m4.7484,0.58568l0,1.98171" fill="#00000000" stroke="#3dff17" stroke-linecap="butt" stroke-linejoin="miter" stroke-width="0.3044716"/>
    <path d="M4.7484,3.48203L4.7484,5.46374" fill="#00000000" stroke="#3dff17" stroke-linecap="butt" stroke-linejoin="miter" stroke-width="0.3044716"/>
  </g>
  <path d="m0.00701,-0.03424h5.09107v5.10468L0.00701,5.07043Z" fill="#ffba36" stroke="#00000000" stroke-width="0.04296433"/>
</svg>
