<?xml version="1.0" ?>
<svg height="5.3979985.3979985.3979985.3979985.3979985.3979985.3979985.3979985.3979985.397998" viewBox="0 0 5.3980017 5.397998" width="5.39800175.39800175.39800175.39800175.39800175.39800175.39800175.39800175.39800175.3980017" xmlns="http://www.w3.org/2000/svg">
  <path d="m3.149,0.1875 l0.408,0.706" fill="#00000000" stroke="#000000" stroke-linecap="butt" stroke-linejoin="miter" stroke-width="0.21"/>
  <path d="m2.249,0.1875 l0.408,0.706" fill="#00000000" stroke="#000000" stroke-linecap="butt" stroke-linejoin="miter" stroke-width="0.21"/>
  <path d="m5.21051,3.149 l-0.706,0.408" fill="#00000000" stroke="#000000" stroke-linecap="butt" stroke-linejoin="miter" stroke-width="0.21"/>
  <path d="m5.21051,2.249 l-0.706,0.408" fill="#00000000" stroke="#000000" stroke-linecap="butt" stroke-linejoin="miter" stroke-width="0.21"/>
  <path d="m2.249,5.2105 l-0.408,-0.706" fill="#00000000" stroke="#000000" stroke-linecap="butt" stroke-linejoin="miter" stroke-width="0.21"/>
  <path d="m3.149,5.2105 l-0.408,-0.706" fill="#00000000" stroke="#000000" stroke-linecap="butt" stroke-linejoin="miter" stroke-width="0.21"/>
  <path d="m0.1875,2.249 l0.706,-0.408" fill="#00000000" stroke="#000000" stroke-linecap="butt" stroke-linejoin="miter" stroke-width="0.21"/>
  <path d="m0.1875,3.149 l0.706,-0.408" fill="#00000000" stroke="#000000" stroke-linecap="butt" stroke-linejoin="miter" stroke-width="0.21"/>
  <path d="m0.1875,0.1875l5.023,-0l0,5.023l-5.023,-0z" fill="#00000000" stroke="#000000" stroke-linecap="butt" stroke-linejoin="miter" stroke-width="0.375"/>
</svg>
